<?xml version="1.0" encoding="UTF-8"?>
<svg width="377px" height="431px" viewBox="0 0 377 431" version="1.1" xmlns="http://www.w3.org/2000/svg" xmlns:xlink="http://www.w3.org/1999/xlink">
    <title>Award</title>
    <g id="Page-1" stroke="none" stroke-width="1" fill="none" fill-rule="evenodd">
        <g id="Group" fill-rule="nonzero">
            <g id="undraw_winners_ao2o">
                <path d="M376,29.07 L375.32,38.2 C375.22,39.44 372.85,68.96 355.37,103.46 C340.37,133.05 311.18,171.59 256.07,193.25 C251.77,194.95 247.306667,196.536667 242.68,198.01 L237.52,181.81 C250.474374,177.733221 262.95278,172.275176 274.74,165.53 C302.83,149.31 324.67,126.16 339.9,96.37 C347.980441,80.5091897 353.739318,63.5693366 357,46.07 L294.3,46.07 L294.3,29.07 L376,29.07 Z" id="Path" fill="#FCEB4F"></path>
                <path d="M249.32,193.26 C304.42,171.6 333.62,133.07 348.61,103.48 C366.09,68.98 368.47,39.48 368.56,38.22 L369.24,29.09 L376.24,29.09 L375.56,38.22 C375.47,39.46 373.09,68.98 355.61,103.48 C340.61,133.07 311.42,171.6 256.32,193.26 C252.02,194.96 247.553333,196.55 242.92,198.03 L242.24,195.9 C244.653333,195.04 247.013333,194.16 249.32,193.26 Z" id="Path" fill="#FFFFFF" opacity="0.1"></path>
                <path d="M139,181.81 L133.84,198.01 C129.206667,196.53 124.74,194.94 120.44,193.24 C65.34,171.58 36.14,133.05 21.15,103.46 C3.67,68.96 1.29,39.46 1.2,38.2 L0.52,29.07 L82.18,29.07 L82.18,46.07 L19.47,46.07 C22.7479829,63.571543 28.5236638,80.5112951 36.62,96.37 C51.85,126.16 73.68,149.31 101.77,165.52 C113.55847,172.272266 126.040604,177.733828 139,181.81 L139,181.81 Z" id="Path" fill="#FCEB4F"></path>
                <path d="M127.18,193.26 C72.08,171.6 42.88,133.07 27.89,103.48 C10.41,68.98 8.03,39.48 7.94,38.22 L7.26,29.09 L0.26,29.09 L0.94,38.22 C1.03,39.46 3.41,68.98 20.89,103.48 C35.89,133.07 65.08,171.6 120.18,193.26 C124.48,194.96 128.946667,196.55 133.58,198.03 L134.26,195.9 C131.853333,195.04 129.493333,194.16 127.18,193.26 Z" id="Path" fill="#FFFFFF" opacity="0.1"></path>
                <path d="M282.59,338.41 L282.59,430.08 L93.92,430.08 L93.92,338.41 L99.92,330.41 C161.06,308.71 173.45,252.12 175.92,229.73 C176.287599,226.635998 176.49787,223.525327 176.55,220.41 L199.88,220.41 C199.93213,223.525327 200.142401,226.635998 200.51,229.73 C203.02,252.12 215.41,308.73 276.51,330.41 L282.59,338.41 Z" id="Path" fill="#FCEB4F"></path>
                <rect id="Rectangle" fill="#000000" opacity="0.1" x="93.92" y="338.41" width="188.67" height="11.5"></rect>
                <rect id="Rectangle" fill="#000000" opacity="0.1" x="134.255" y="372.16" width="108" height="34"></rect>
                <path d="M109.92,330.41 C171.06,308.71 183.45,252.12 185.92,229.73 C186.287599,226.635998 186.49787,223.525327 186.55,220.41 L176.55,220.41 C176.49787,223.525327 176.287599,226.635998 175.92,229.73 C173.41,252.12 161.02,308.73 99.92,330.41 L93.92,338.41 L93.92,430.08 L103.92,430.08 L103.92,338.41 L109.92,330.41 Z" id="Path" fill="#FFFFFF" opacity="0.1"></path>
                <path d="M65.26,29.07 L82.18,29.07 L82.18,46.07 L66.76,46.07 C66.1533333,40.47 65.6533333,34.8033333 65.26,29.07 Z" id="Path" fill="#000000" opacity="0.1"></path>
                <path d="M139,181.81 L133.84,198.01 C129.206667,196.53 124.74,194.94 120.44,193.24 C113.366502,184.601947 107.115977,175.321574 101.77,165.52 C113.55847,172.272266 126.040604,177.733828 139,181.81 L139,181.81 Z" id="Path" fill="#000000" opacity="0.1"></path>
                <path d="M237.51,181.81 C250.464374,177.733221 262.94278,172.275176 274.73,165.53 C269.381022,175.332888 263.130699,184.616309 256.06,193.26 C251.76,194.96 247.296667,196.546667 242.67,198.02 L237.51,181.81 Z" id="Path" fill="#000000" opacity="0.1"></path>
                <path d="M311.24,29.07 C310.846667,34.8033333 310.346667,40.47 309.74,46.07 L294.33,46.07 L294.33,29.07 L311.24,29.07 Z" id="Path" fill="#000000" opacity="0.1"></path>
                <path d="M200.55,229.73 C192.428842,231.303428 184.081158,231.303428 175.96,229.73 C176.327599,226.635998 176.53787,223.525327 176.59,220.41 L199.92,220.41 C199.97213,223.525327 200.182401,226.635998 200.55,229.73 Z" id="Path" fill="#000000" opacity="0.1"></path>
                <path d="M67.26,0.91 C67.69,126.97 121.69,228.91 188.26,228.91 C254.83,228.91 308.82,126.97 309.26,0.91 L67.26,0.91 Z" id="Path" fill="#FCEB4F"></path>
                <path d="M88.76,0.91 L67.26,0.91 C67.69,126.97 121.69,228.91 188.26,228.91 C191.86229,228.903472 195.457872,228.599102 199.01,228 C137.47,217.72 89.17,120.11 88.76,0.91 Z" id="Path" fill="#FFFFFF" opacity="0.1"></path>
            </g>
            <path d="M154.898438,397.246094 L155.039062,397.164062 L155.941406,393.554688 L158.039062,393.554688 L159.210938,390.34375 L159.046875,390.179688 L156.785156,390.179688 L157.277344,388.210938 L158.660156,388.210938 L159.832031,385 L159.667969,384.835938 L158.121094,384.835938 L158.765625,382.28125 L155.964844,381.308594 L155.765625,381.425781 L154.910156,384.835938 L152.71875,384.835938 L153.363281,382.28125 L150.5625,381.308594 L150.363281,381.425781 L149.507812,384.835938 L147.210938,384.835938 L146.027344,388.09375 L146.144531,388.210938 L148.664062,388.210938 L148.171875,390.179688 L146.589844,390.179688 L145.40625,393.4375 L145.523438,393.554688 L147.328125,393.554688 L146.660156,396.25 L149.496094,397.246094 L149.636719,397.164062 L150.539062,393.554688 L152.730469,393.554688 L152.0625,396.25 L154.898438,397.246094 Z M153.574219,390.179688 L151.382812,390.179688 L151.875,388.210938 L154.066406,388.210938 L153.574219,390.179688 Z M172.616087,397 L172.616087,393.625 L166.229368,393.625 L166.229368,381.554688 L162.643431,381.554688 L162.643431,397 L172.616087,397 Z M177.822809,396.999318 C182.45705,396.975791 185.669674,396.327299 185.669674,392.5 C185.669674,390.660156 184.884518,389.523438 183.279049,388.867188 C184.368893,388.070312 184.95483,387.003906 184.95483,385.667969 C184.95483,382.527344 182.212643,381.554688 178.837643,381.554688 L178.837643,381.554688 L174.255611,381.554688 L174.255611,397 L177.822809,396.999318 Z M178.07282,387.7422 L177.841549,387.7422 L177.841549,384.097656 C180.864986,384.097656 181.57983,384.425781 181.57983,386.007812 C181.57983,387.765625 180.26733,387.7422 177.841549,387.7422 L178.07282,387.7422 Z M177.841549,394.457031 L177.841549,390.519531 C181.357174,390.519531 182.341549,390.941406 182.341549,392.605469 C182.341549,394.457031 180.489986,394.457031 177.841549,394.457031 L177.841549,394.457031 Z M197.98498,397 L197.98498,393.625 L191.598261,393.625 L191.598261,381.554688 L188.012323,381.554688 L188.012323,397 L197.98498,397 Z M206.983879,397.234375 C209.339348,397.234375 211.343254,396.355469 212.749504,394.925781 C214.155754,393.496094 214.976066,391.515625 214.976066,389.265625 C214.976066,387.015625 214.19091,385.035156 212.819816,383.605469 C211.448723,382.175781 209.468254,381.320312 207.112785,381.320312 C204.757316,381.320312 202.75341,382.175781 201.34716,383.605469 C199.929191,385.035156 199.09716,387.015625 199.09716,389.265625 C199.09716,391.515625 199.894035,393.496094 201.276848,394.925781 C202.65966,396.355469 204.62841,397.234375 206.983879,397.234375 Z M207.101066,393.871094 C205.694816,393.871094 204.593254,393.355469 203.843254,392.5 C203.081535,391.65625 202.683098,390.472656 202.683098,389.148438 C202.683098,387.882812 203.093254,386.757812 203.843254,385.960938 C204.593254,385.164062 205.694816,384.683594 207.06591,384.683594 C208.460441,384.683594 209.538566,385.1875 210.276848,386.03125 C211.015129,386.875 211.390129,388.035156 211.390129,389.382812 C211.390129,390.660156 211.00341,391.785156 210.276848,392.582031 C209.550285,393.390625 208.460441,393.871094 207.101066,393.871094 Z M223.025747,397 C225.779653,397 227.795278,396.015625 229.131216,394.5625 C230.467153,393.109375 231.111685,391.175781 231.111685,389.253906 C231.111685,387.144531 230.326528,385.210938 228.896841,383.816406 C227.467153,382.421875 225.416372,381.554688 222.896841,381.554688 L222.896841,381.554688 L217.260122,381.554688 L217.260122,397 L223.025747,397 Z M222.34606,393.636719 L220.84606,393.636719 L220.84606,384.929688 L222.170278,384.929688 C223.857778,384.929688 225.205435,385.480469 226.131216,386.289062 C227.056997,387.097656 227.560903,388.1875 227.560903,389.265625 C227.560903,390.203125 227.197622,391.304688 226.365591,392.148438 C225.521841,393.003906 224.22106,393.636719 222.34606,393.636719 L222.34606,393.636719 Z" id="#LBLOD" fill="#A99D27"></path>
            <path d="M153.898438,396.246094 L154.039062,396.164062 L154.941406,392.554688 L157.039062,392.554688 L158.210938,389.34375 L158.046875,389.179688 L155.785156,389.179688 L156.277344,387.210938 L157.660156,387.210938 L158.832031,384 L158.667969,383.835938 L157.121094,383.835938 L157.765625,381.28125 L154.964844,380.308594 L154.765625,380.425781 L153.910156,383.835938 L151.71875,383.835938 L152.363281,381.28125 L149.5625,380.308594 L149.363281,380.425781 L148.507812,383.835938 L146.210938,383.835938 L145.027344,387.09375 L145.144531,387.210938 L147.664062,387.210938 L147.171875,389.179688 L145.589844,389.179688 L144.40625,392.4375 L144.523438,392.554688 L146.328125,392.554688 L145.660156,395.25 L148.496094,396.246094 L148.636719,396.164062 L149.539062,392.554688 L151.730469,392.554688 L151.0625,395.25 L153.898438,396.246094 Z M152.574219,389.179688 L150.382812,389.179688 L150.875,387.210938 L153.066406,387.210938 L152.574219,389.179688 Z M171.616087,396 L171.616087,392.625 L165.229368,392.625 L165.229368,380.554688 L161.643431,380.554688 L161.643431,396 L171.616087,396 Z M176.822809,395.999318 C181.45705,395.975791 184.669674,395.327299 184.669674,391.5 C184.669674,389.660156 183.884518,388.523438 182.279049,387.867188 C183.368893,387.070312 183.95483,386.003906 183.95483,384.667969 C183.95483,381.527344 181.212643,380.554688 177.837643,380.554688 L177.837643,380.554688 L173.255611,380.554688 L173.255611,396 L176.822809,395.999318 Z M177.07282,386.7422 L176.841549,386.7422 L176.841549,383.097656 C179.864986,383.097656 180.57983,383.425781 180.57983,385.007812 C180.57983,386.765625 179.26733,386.7422 176.841549,386.7422 L177.07282,386.7422 Z M176.841549,393.457031 L176.841549,389.519531 C180.357174,389.519531 181.341549,389.941406 181.341549,391.605469 C181.341549,393.457031 179.489986,393.457031 176.841549,393.457031 L176.841549,393.457031 Z M196.98498,396 L196.98498,392.625 L190.598261,392.625 L190.598261,380.554688 L187.012323,380.554688 L187.012323,396 L196.98498,396 Z M205.983879,396.234375 C208.339348,396.234375 210.343254,395.355469 211.749504,393.925781 C213.155754,392.496094 213.976066,390.515625 213.976066,388.265625 C213.976066,386.015625 213.19091,384.035156 211.819816,382.605469 C210.448723,381.175781 208.468254,380.320312 206.112785,380.320312 C203.757316,380.320312 201.75341,381.175781 200.34716,382.605469 C198.929191,384.035156 198.09716,386.015625 198.09716,388.265625 C198.09716,390.515625 198.894035,392.496094 200.276848,393.925781 C201.65966,395.355469 203.62841,396.234375 205.983879,396.234375 Z M206.101066,392.871094 C204.694816,392.871094 203.593254,392.355469 202.843254,391.5 C202.081535,390.65625 201.683098,389.472656 201.683098,388.148438 C201.683098,386.882812 202.093254,385.757812 202.843254,384.960938 C203.593254,384.164062 204.694816,383.683594 206.06591,383.683594 C207.460441,383.683594 208.538566,384.1875 209.276848,385.03125 C210.015129,385.875 210.390129,387.035156 210.390129,388.382812 C210.390129,389.660156 210.00341,390.785156 209.276848,391.582031 C208.550285,392.390625 207.460441,392.871094 206.101066,392.871094 Z M222.025747,396 C224.779653,396 226.795278,395.015625 228.131216,393.5625 C229.467153,392.109375 230.111685,390.175781 230.111685,388.253906 C230.111685,386.144531 229.326528,384.210938 227.896841,382.816406 C226.467153,381.421875 224.416372,380.554688 221.896841,380.554688 L221.896841,380.554688 L216.260122,380.554688 L216.260122,396 L222.025747,396 Z M221.34606,392.636719 L219.84606,392.636719 L219.84606,383.929688 L221.170278,383.929688 C222.857778,383.929688 224.205435,384.480469 225.131216,385.289062 C226.056997,386.097656 226.560903,387.1875 226.560903,388.265625 C226.560903,389.203125 226.197622,390.304688 225.365591,391.148438 C224.521841,392.003906 223.22106,392.636719 221.34606,392.636719 L221.34606,392.636719 Z" id="#LBLOD" fill="#FCEB4F"></path>
        </g>
    </g>
</svg>