<svg width="964" height="728" viewBox="0 0 964 728" fill="none" xmlns="http://www.w3.org/2000/svg">
<g clip-path="url(#clip0)">
<path d="M555.526 35.4319C563.795 53.0358 546.273 58.0221 526.202 67.4575C506.131 76.893 491.111 87.2046 482.842 69.6007C474.574 51.9969 467.865 17.0564 496.259 3.70832C525.631 -10.0996 547.257 17.8281 555.526 35.4319Z" fill="#2F2E41"/>
<path d="M514.575 70.0518C529.497 70.0518 541.595 57.9495 541.595 43.0206C541.595 28.0916 529.497 15.9893 514.575 15.9893C499.652 15.9893 487.555 28.0916 487.555 43.0206C487.555 57.9495 499.652 70.0518 514.575 70.0518Z" fill="#FFB8B8"/>
<path d="M648.436 162.899C647.501 161.677 646.566 160.477 645.62 159.311C644.399 157.792 643.171 156.321 641.935 154.898C627.93 138.73 613.035 128.55 596.632 127.46H596.61L596.368 127.438L563.684 159.311L552.572 170.141L552.815 170.735L558.81 185.67H663.86C659.127 177.811 653.978 170.21 648.436 162.899V162.899Z" fill="#2F2E41"/>
<path d="M485.192 53.9033L494.864 49.3564L493.517 35.3974L499.985 46.9493L504.608 44.7761L503.822 36.6333L507.595 43.3719L541.945 27.2236C538.719 20.355 532.897 15.0499 525.761 12.4753C518.625 9.90073 510.759 10.2676 503.893 13.4952L498.915 15.8355C492.049 19.0632 486.746 24.8871 484.173 32.0262C481.599 39.1653 481.966 47.0347 485.192 53.9033V53.9033Z" fill="#2F2E41"/>
<path d="M709.052 544.564H144.871C140.058 544.559 135.444 542.644 132.041 539.239C128.638 535.835 126.724 531.219 126.719 526.405V187.258C126.723 183.731 128.125 180.35 130.618 177.856C133.111 175.361 136.491 173.958 140.017 173.954H713.676C717.262 173.958 720.701 175.386 723.237 177.923C725.773 180.46 727.2 183.9 727.204 187.488V526.405C727.199 531.219 725.284 535.835 721.881 539.239C718.478 542.644 713.865 544.559 709.052 544.564Z" fill="#F2F2F2"/>
<path d="M162.475 526.405H691.453C696.121 526.405 700.598 524.549 703.899 521.247C707.2 517.945 709.055 513.466 709.055 508.795V220.943C709.055 216.272 707.2 211.793 703.899 208.491C700.598 205.189 696.121 203.333 691.453 203.333H162.475C157.807 203.333 153.329 205.189 150.028 208.491C146.728 211.793 144.873 216.272 144.873 220.943V508.795C144.873 513.466 146.728 517.945 150.028 521.247C153.329 524.549 157.807 526.405 162.475 526.405Z" fill="white"/>
<path d="M726.952 186.22H126.465V176.975C126.472 172.144 128.394 167.514 131.809 164.099C135.225 160.684 139.854 158.764 144.683 158.76H708.734C713.563 158.764 718.193 160.684 721.608 164.099C725.023 167.514 726.945 172.144 726.952 176.975V186.22Z" fill="#FFE615"/>
<path d="M159.574 177.232C162.176 177.232 164.286 175.121 164.286 172.518C164.286 169.914 162.176 167.804 159.574 167.804C156.971 167.804 154.861 169.914 154.861 172.518C154.861 175.121 156.971 177.232 159.574 177.232Z" fill="white"/>
<path d="M177.46 177.232C180.063 177.232 182.173 175.121 182.173 172.518C182.173 169.914 180.063 167.804 177.46 167.804C174.858 167.804 172.748 169.914 172.748 172.518C172.748 175.121 174.858 177.232 177.46 177.232Z" fill="white"/>
<path d="M195.347 177.232C197.95 177.232 200.059 175.121 200.059 172.518C200.059 169.914 197.95 167.804 195.347 167.804C192.745 167.804 190.635 169.914 190.635 172.518C190.635 175.121 192.745 177.232 195.347 177.232Z" fill="white"/>
<path d="M443.469 463.979H396.164C393.393 463.976 390.737 462.873 388.777 460.913C386.818 458.953 385.716 456.296 385.713 453.524V406.199C385.716 403.427 386.818 400.769 388.777 398.809C390.737 396.849 393.393 395.747 396.164 395.744H443.469C446.24 395.747 448.896 396.849 450.856 398.809C452.815 400.769 453.917 403.427 453.92 406.199V453.524C453.917 456.296 452.815 458.953 450.856 460.913C448.896 462.873 446.24 463.976 443.469 463.979V463.979ZM396.164 397.945C393.976 397.947 391.879 398.818 390.332 400.365C388.786 401.912 387.916 404.011 387.913 406.199V453.524C387.916 455.712 388.786 457.81 390.332 459.358C391.879 460.905 393.976 461.776 396.164 461.778H443.469C445.656 461.776 447.754 460.905 449.3 459.358C450.847 457.81 451.717 455.712 451.72 453.524V406.199C451.717 404.011 450.847 401.912 449.3 400.365C447.754 398.818 445.656 397.947 443.469 397.945H396.164Z" fill="#CCCCCC"/>
<path d="M434.116 450.772H405.513C404.638 450.771 403.799 450.423 403.181 449.804C402.562 449.185 402.214 448.346 402.213 447.47V412.252C402.214 411.377 402.562 410.538 403.181 409.919C403.799 409.3 404.638 408.951 405.513 408.95H426.239C426.99 408.951 427.72 409.208 428.306 409.679L436.183 416.011C436.569 416.32 436.88 416.711 437.094 417.157C437.307 417.603 437.418 418.091 437.416 418.585V447.47C437.415 448.346 437.067 449.185 436.449 449.804C435.83 450.423 434.991 450.771 434.116 450.772V450.772ZM405.513 411.152C405.222 411.152 404.942 411.268 404.736 411.474C404.53 411.681 404.413 411.96 404.413 412.252V447.47C404.413 447.762 404.53 448.042 404.736 448.248C404.942 448.455 405.222 448.571 405.513 448.571H434.116C434.408 448.571 434.687 448.455 434.894 448.248C435.1 448.042 435.216 447.762 435.216 447.47V418.585C435.217 418.42 435.18 418.257 435.109 418.109C435.038 417.96 434.934 417.83 434.805 417.727L426.927 411.394C426.732 411.237 426.489 411.152 426.239 411.152H405.513Z" fill="#CCCCCC"/>
<path d="M428.618 424.359H411.016C410.724 424.359 410.444 424.243 410.238 424.036C410.032 423.83 409.916 423.55 409.916 423.258C409.916 422.966 410.032 422.686 410.238 422.48C410.444 422.273 410.724 422.157 411.016 422.157H428.618C428.91 422.157 429.19 422.273 429.396 422.48C429.602 422.686 429.718 422.966 429.718 423.258C429.718 423.55 429.602 423.83 429.396 424.036C429.19 424.243 428.91 424.359 428.618 424.359Z" fill="#CCCCCC"/>
<path d="M428.618 430.962H411.016C410.724 430.962 410.444 430.846 410.238 430.64C410.032 430.433 409.916 430.153 409.916 429.861C409.916 429.569 410.032 429.29 410.238 429.083C410.444 428.877 410.724 428.761 411.016 428.761H428.618C428.91 428.761 429.19 428.877 429.396 429.083C429.602 429.29 429.718 429.569 429.718 429.861C429.718 430.153 429.602 430.433 429.396 430.64C429.19 430.846 428.91 430.962 428.618 430.962Z" fill="#CCCCCC"/>
<path d="M428.618 437.565H411.016C410.724 437.565 410.444 437.449 410.238 437.243C410.032 437.037 409.916 436.757 409.916 436.465C409.916 436.173 410.032 435.893 410.238 435.687C410.444 435.48 410.724 435.364 411.016 435.364H428.618C428.91 435.364 429.19 435.48 429.396 435.687C429.602 435.893 429.718 436.173 429.718 436.465C429.718 436.757 429.602 437.037 429.396 437.243C429.19 437.449 428.91 437.565 428.618 437.565Z" fill="#CCCCCC"/>
<path d="M555.68 463.979H508.375C505.604 463.976 502.948 462.873 500.988 460.913C499.029 458.953 497.927 456.296 497.924 453.524V406.199C497.927 403.427 499.029 400.769 500.988 398.809C502.948 396.849 505.604 395.747 508.375 395.744H555.68C558.451 395.747 561.107 396.849 563.066 398.809C565.026 400.769 566.128 403.427 566.131 406.199V453.524C566.128 456.296 565.026 458.953 563.066 460.913C561.107 462.873 558.451 463.976 555.68 463.979V463.979ZM508.375 397.945C506.187 397.947 504.09 398.818 502.543 400.365C500.997 401.912 500.126 404.011 500.124 406.199V453.524C500.126 455.712 500.997 457.81 502.543 459.358C504.09 460.905 506.187 461.776 508.375 461.778H555.68C557.867 461.776 559.965 460.905 561.511 459.358C563.058 457.81 563.928 455.712 563.931 453.524V406.199C563.928 404.011 563.058 401.912 561.511 400.365C559.965 398.818 557.867 397.947 555.68 397.945H508.375Z" fill="#CCCCCC"/>
<path d="M547.428 441.968H516.625C515.75 441.967 514.911 441.619 514.292 441C513.673 440.381 513.325 439.541 513.324 438.666V421.057C513.325 420.181 513.673 419.342 514.292 418.723C514.911 418.104 515.75 417.756 516.625 417.755H547.428C548.303 417.756 549.142 418.104 549.76 418.723C550.379 419.342 550.727 420.181 550.728 421.057V438.666C550.727 439.541 550.379 440.381 549.76 441C549.142 441.619 548.303 441.967 547.428 441.968V441.968ZM516.625 419.956C516.333 419.956 516.053 420.072 515.847 420.279C515.641 420.485 515.525 420.765 515.524 421.057V438.666C515.525 438.958 515.641 439.238 515.847 439.444C516.053 439.65 516.333 439.766 516.625 439.767H547.428C547.719 439.766 547.999 439.65 548.205 439.444C548.411 439.238 548.528 438.958 548.528 438.666V421.057C548.528 420.765 548.411 420.485 548.205 420.279C547.999 420.072 547.719 419.956 547.428 419.956H516.625Z" fill="#CCCCCC"/>
<path d="M532.027 432.764C531.409 432.765 530.803 432.593 530.278 432.266L513.841 421.99C513.595 421.835 513.419 421.588 513.354 421.304C513.289 421.02 513.339 420.721 513.494 420.474C513.648 420.227 513.894 420.051 514.178 419.985C514.462 419.919 514.761 419.969 515.008 420.123L531.444 430.399C531.619 430.508 531.821 430.565 532.027 430.565C532.233 430.565 532.435 430.508 532.61 430.399L549.045 420.123C549.293 419.969 549.591 419.919 549.875 419.985C550.159 420.051 550.405 420.227 550.56 420.474C550.714 420.721 550.764 421.02 550.699 421.304C550.634 421.588 550.459 421.835 550.212 421.99L533.777 432.266C533.251 432.593 532.645 432.765 532.027 432.764V432.764Z" fill="#CCCCCC"/>
<path d="M331.258 463.979H283.953C281.182 463.976 278.526 462.873 276.567 460.913C274.607 458.953 273.505 456.296 273.502 453.524V406.199C273.505 403.427 274.607 400.769 276.567 398.809C278.526 396.849 281.182 395.747 283.953 395.744H331.258C334.029 395.747 336.685 396.849 338.645 398.809C340.604 400.769 341.706 403.427 341.709 406.199V453.524C341.706 456.296 340.604 458.953 338.645 460.913C336.685 462.873 334.029 463.976 331.258 463.979V463.979ZM283.953 397.945C281.766 397.947 279.668 398.818 278.122 400.365C276.575 401.912 275.705 404.011 275.702 406.199V453.524C275.705 455.712 276.575 457.81 278.122 459.358C279.668 460.905 281.766 461.776 283.953 461.778H331.258C333.446 461.776 335.543 460.905 337.09 459.358C338.636 457.81 339.506 455.712 339.509 453.524V406.199C339.506 404.011 338.636 401.912 337.09 400.365C335.543 398.818 333.446 397.947 331.258 397.945H283.953Z" fill="#CCCCCC"/>
<path d="M323.006 441.968H292.203C291.328 441.967 290.489 441.619 289.87 441C289.251 440.381 288.903 439.541 288.902 438.666V421.057C288.903 420.181 289.251 419.342 289.87 418.723C290.489 418.104 291.328 417.756 292.203 417.755H323.006C323.881 417.756 324.72 418.104 325.339 418.723C325.957 419.342 326.305 420.181 326.306 421.057V438.666C326.305 439.541 325.957 440.381 325.339 441C324.72 441.619 323.881 441.967 323.006 441.968V441.968ZM292.203 419.956C291.911 419.956 291.631 420.072 291.425 420.279C291.219 420.485 291.103 420.765 291.103 421.057V438.666C291.103 438.958 291.219 439.238 291.425 439.444C291.631 439.65 291.911 439.766 292.203 439.767H323.006C323.298 439.766 323.577 439.65 323.784 439.444C323.99 439.238 324.106 438.958 324.106 438.666V421.057C324.106 420.765 323.99 420.485 323.784 420.279C323.577 420.072 323.298 419.956 323.006 419.956H292.203Z" fill="#CCCCCC"/>
<path d="M318.124 441.968H295.986C295.599 441.968 295.22 441.866 294.885 441.673C294.551 441.48 294.273 441.202 294.08 440.867C293.887 440.533 293.785 440.153 293.785 439.767C293.785 439.38 293.887 439 294.08 438.666L300.749 427.11C300.942 426.775 301.22 426.497 301.554 426.304C301.889 426.111 302.268 426.009 302.654 426.009C303.04 426.009 303.42 426.111 303.754 426.304C304.089 426.497 304.367 426.775 304.56 427.11L308.867 434.573L311.362 430.249C311.555 429.915 311.833 429.637 312.167 429.444C312.502 429.25 312.881 429.149 313.268 429.149C313.654 429.149 314.033 429.25 314.368 429.444C314.702 429.637 314.98 429.915 315.173 430.249L320.03 438.666C320.223 439.001 320.325 439.38 320.325 439.767C320.325 440.153 320.223 440.533 320.03 440.867C319.837 441.202 319.559 441.48 319.225 441.673C318.89 441.866 318.51 441.968 318.124 441.968H318.124ZM318.124 439.766L313.267 431.35L309.82 437.325C309.723 437.492 309.584 437.631 309.417 437.727C309.25 437.824 309.06 437.875 308.867 437.875V437.875C308.674 437.875 308.484 437.824 308.317 437.727C308.149 437.631 308.01 437.492 307.914 437.325L302.655 428.21L295.986 439.766H318.124Z" fill="#CCCCCC"/>
<path d="M319.704 426.559C320.919 426.559 321.904 425.574 321.904 424.358C321.904 423.142 320.919 422.157 319.704 422.157C318.489 422.157 317.504 423.142 317.504 424.358C317.504 425.574 318.489 426.559 319.704 426.559Z" fill="#CCCCCC"/>
<path d="M845.796 713.338L832.308 713.337L825.893 661.292L845.798 661.294L845.796 713.338Z" fill="#FFB8B8"/>
<path d="M849.238 726.417L805.75 726.415V725.865C805.75 723.641 806.188 721.439 807.038 719.385C807.889 717.33 809.136 715.463 810.708 713.891C812.279 712.318 814.146 711.071 816.199 710.22C818.253 709.369 820.454 708.931 822.677 708.931H822.678L849.239 708.932L849.238 726.417Z" fill="#2F2E41"/>
<path d="M900.802 713.338L887.314 713.337L880.898 661.292L900.804 661.294L900.802 713.338Z" fill="#FFB8B8"/>
<path d="M904.24 726.417L860.752 726.415V725.865C860.752 723.641 861.19 721.439 862.04 719.385C862.891 717.33 864.138 715.463 865.71 713.891C867.281 712.318 869.148 711.071 871.201 710.22C873.255 709.369 875.456 708.931 877.679 708.931H877.68L904.241 708.932L904.24 726.417Z" fill="#2F2E41"/>
<path d="M896.759 690.776L884.268 686.974C883.337 686.692 882.51 686.141 881.891 685.391C881.271 684.64 880.887 683.724 880.786 682.756L869.14 572.339C869.131 572.206 869.071 572.081 868.974 571.989C868.876 571.898 868.747 571.847 868.613 571.847C868.48 571.834 868.346 571.874 868.241 571.958C868.136 572.042 868.068 572.164 868.052 572.297L848.546 679.272C848.427 679.921 848.18 680.54 847.819 681.093C847.459 681.645 846.991 682.12 846.444 682.489C845.898 682.858 845.283 683.114 844.636 683.242C843.989 683.37 843.323 683.367 842.677 683.234L826.712 679.944C825.542 679.699 824.499 679.04 823.775 678.087C823.051 677.134 822.695 675.952 822.772 674.758L834.637 499.423L915.098 490.738L903.142 686.339C903.064 687.597 902.511 688.777 901.595 689.642C900.678 690.506 899.468 690.989 898.208 690.992C897.717 690.992 897.229 690.919 896.759 690.776V690.776Z" fill="#2F2E41"/>
<path d="M896.682 346.734C911.605 346.734 923.702 334.632 923.702 319.703C923.702 304.774 911.605 292.672 896.682 292.672C881.759 292.672 869.662 304.774 869.662 319.703C869.662 334.632 881.759 346.734 896.682 346.734Z" fill="#FFB8B8"/>
<path d="M834.514 500.453L851.959 390.559C852.887 384.716 855.048 379.138 858.298 374.196C861.549 369.253 865.814 365.06 870.81 361.895C875.806 358.73 881.419 356.665 887.274 355.839C893.13 355.012 899.095 355.443 904.771 357.102V357.102C914.696 359.974 923.194 366.444 928.605 375.248C934.017 384.053 935.953 394.559 934.035 404.716L915.783 502.856L834.514 500.453Z" fill="#FFE615"/>
<path d="M904.143 520.116C905.493 519.224 906.63 518.048 907.476 516.669C908.322 515.29 908.855 513.742 909.039 512.134C909.222 510.527 909.051 508.899 908.537 507.364C908.023 505.83 907.179 504.428 906.065 503.255L924.103 468.31L903.789 470.479L889.775 503.331C887.93 505.334 886.883 507.945 886.834 510.668C886.784 513.392 887.735 516.039 889.506 518.108C891.278 520.177 893.746 521.524 896.443 521.894C899.141 522.264 901.881 521.632 904.143 520.116V520.116Z" fill="#FFB8B8"/>
<path d="M908.004 497.091C907.006 496.95 906.075 496.508 905.334 495.824L898.433 489.445C897.688 488.752 897.172 487.848 896.958 486.853C896.743 485.858 896.839 484.821 897.232 483.882L911.025 451.175L909.068 386.55C909.349 384.473 910.037 382.471 911.092 380.66C912.147 378.848 913.548 377.263 915.216 375.993C916.884 374.724 918.786 373.796 920.812 373.263C922.839 372.729 924.951 372.6 927.027 372.884C929.103 373.167 931.103 373.857 932.913 374.914C934.723 375.971 936.306 377.375 937.573 379.044C938.841 380.714 939.766 382.617 940.298 384.645C940.829 386.673 940.956 388.786 940.671 390.863L944.016 431.487C945.034 443.817 941.539 456.097 934.184 466.042L912.674 495.132C912.261 495.692 911.734 496.157 911.128 496.499C910.522 496.841 909.852 497.052 909.159 497.118C908.775 497.154 908.387 497.146 908.004 497.091V497.091Z" fill="#FFE615"/>
<path d="M741.082 304.975C741.376 306.566 742.016 308.073 742.956 309.39C743.895 310.707 745.112 311.802 746.52 312.597C747.928 313.393 749.494 313.87 751.106 313.995C752.719 314.119 754.339 313.889 755.853 313.32L780.986 343.561L786.909 324.002L762.135 298.283C761.01 295.802 759.015 293.82 756.527 292.713C754.039 291.605 751.232 291.449 748.637 292.274C746.042 293.099 743.84 294.848 742.447 297.188C741.055 299.529 740.569 302.3 741.082 304.975V304.975Z" fill="#FFB8B8"/>
<path d="M760.77 317.51C761.289 316.646 762.058 315.961 762.976 315.545L771.539 311.675C772.468 311.258 773.501 311.136 774.501 311.326C775.5 311.516 776.417 312.009 777.128 312.737L801.856 338.196L862.105 361.59C863.909 362.659 865.483 364.073 866.74 365.751C867.996 367.429 868.91 369.339 869.428 371.37C869.946 373.402 870.059 375.516 869.76 377.591C869.462 379.666 868.757 381.662 867.686 383.465C866.616 385.268 865.2 386.841 863.522 388.096C861.843 389.351 859.933 390.263 857.902 390.779C855.87 391.296 853.757 391.406 851.683 391.105C849.609 390.803 847.615 390.096 845.814 389.023L807.116 376.265C795.37 372.395 785.429 364.388 779.143 353.735L760.752 322.577C760.398 321.978 760.175 321.311 760.096 320.619C760.018 319.928 760.085 319.228 760.295 318.565C760.411 318.196 760.57 317.842 760.77 317.51V317.51Z" fill="#FFE615"/>
<path opacity="0.1" d="M918.597 413.433L917.497 448.652L897.23 483.882L914.152 444.621L918.597 413.433Z" fill="black"/>
<path d="M893.585 324.782C891.888 325.003 890.168 324.6 888.746 323.648C887.324 322.696 886.295 321.261 885.85 319.607C885.422 317.704 884.484 315.954 883.137 314.544C881.79 313.133 880.085 312.117 878.204 311.602C873.247 310.469 867.189 312.803 863.557 309.046C862.78 308.189 862.217 307.158 861.916 306.04C861.615 304.922 861.583 303.749 861.824 302.616C862.493 298.965 865.104 296.207 867.945 294.002C873.923 289.381 881.157 286.676 888.699 286.242C892.603 286.129 896.51 286.323 900.384 286.823C904.439 287.079 908.451 287.813 912.335 289.008C916.76 290.679 920.693 293.438 923.769 297.032C926.846 300.625 928.968 304.937 929.939 309.567C930.826 314.212 930.69 318.995 929.539 323.582C928.388 328.169 926.251 332.45 923.275 336.125C919.713 340.562 915.12 344.06 909.897 346.314C908.653 346.902 907.227 346.974 905.93 346.516C902.676 345.222 903.208 341.19 904.691 338.501C906.279 335.623 908.722 332.837 907.445 329.335C906.805 327.711 905.577 326.388 904.005 325.63C900.77 323.98 897.153 324.37 893.676 324.772L893.585 324.782Z" fill="#2F2E41"/>
<path d="M732.054 340.047H397.619C392.806 340.042 388.192 338.127 384.789 334.722C381.386 331.318 379.472 326.702 379.467 321.888V250.35C379.472 245.536 381.386 240.92 384.789 237.516C388.192 234.111 392.806 232.196 397.619 232.191H732.054C736.866 232.197 741.48 234.112 744.883 237.516C748.286 240.92 750.2 245.536 750.206 250.35V321.888C750.2 326.702 748.286 331.318 744.883 334.722C741.48 338.127 736.866 340.042 732.054 340.047V340.047Z" fill="white"/>
<path d="M732.053 340.598H397.618C392.66 340.592 387.906 338.619 384.4 335.112C380.894 331.604 378.922 326.849 378.916 321.888V250.351C378.922 245.391 380.894 240.635 384.4 237.127C387.906 233.62 392.66 231.647 397.618 231.641H732.053C737.011 231.647 741.765 233.62 745.271 237.127C748.777 240.635 750.749 245.391 750.755 250.351V321.888C750.749 326.849 748.777 331.604 745.271 335.112C741.765 338.619 737.011 340.592 732.053 340.598ZM397.618 233.842C393.243 233.847 389.049 235.588 385.955 238.683C382.861 241.778 381.121 245.974 381.116 250.351V321.888C381.121 326.265 382.861 330.461 385.955 333.556C389.049 336.651 393.243 338.392 397.618 338.397H732.053C736.428 338.392 740.623 336.651 743.716 333.556C746.81 330.461 748.55 326.265 748.555 321.888V250.351C748.55 245.974 746.81 241.778 743.716 238.683C740.623 235.588 736.428 233.847 732.053 233.842H397.618Z" fill="#3F3D56"/>
<path d="M691.348 322.439H438.322C433.509 322.433 428.895 320.518 425.492 317.114C422.09 313.709 420.175 309.094 420.17 304.279V266.86C420.175 262.045 422.09 257.429 425.492 254.025C428.895 250.62 433.509 248.706 438.322 248.7H691.348C696.161 248.706 700.775 250.62 704.178 254.025C707.581 257.429 709.495 262.045 709.5 266.86V304.279C709.495 309.094 707.581 313.709 704.178 317.114C700.775 320.518 696.161 322.433 691.348 322.439V322.439Z" fill="#F2F2F2"/>
<path d="M492.772 302.269C504.761 302.269 514.48 292.547 514.48 280.553C514.48 268.559 504.761 258.836 492.772 258.836C480.783 258.836 471.064 268.559 471.064 280.553C471.064 292.547 480.783 302.269 492.772 302.269Z" fill="#FF6584"/>
<path d="M675.626 320.247L644.985 294.538L614.873 269.272C614.079 268.606 613.074 268.241 612.037 268.243C611 268.245 609.997 268.614 609.205 269.283L579.19 294.664L571.859 300.864L560.804 291.589L527.21 263.403C526.416 262.736 525.411 262.371 524.374 262.373C523.337 262.375 522.334 262.744 521.542 263.414L488.057 291.73L454.044 320.491C453.872 320.637 453.749 320.832 453.691 321.05C453.633 321.269 453.644 321.499 453.722 321.711C453.799 321.923 453.94 322.106 454.126 322.235C454.311 322.364 454.531 322.433 454.757 322.433L524.489 322.298L546.562 322.256L546.346 322.438L612.141 322.311L674.921 322.19C675.147 322.19 675.367 322.12 675.552 321.991C675.736 321.861 675.877 321.677 675.954 321.465C676.031 321.253 676.04 321.022 675.982 320.804C675.923 320.586 675.799 320.392 675.626 320.247Z" fill="#3F3D56"/>
<path d="M962.901 728H751.678C751.386 728 751.107 727.884 750.9 727.678C750.694 727.471 750.578 727.191 750.578 726.9C750.578 726.608 750.694 726.328 750.9 726.121C751.107 725.915 751.386 725.799 751.678 725.799H962.901C963.192 725.799 963.472 725.915 963.678 726.121C963.885 726.328 964.001 726.608 964.001 726.9C964.001 727.191 963.885 727.471 963.678 727.678C963.472 727.884 963.192 728 962.901 728Z" fill="#CCCCCC"/>
<path d="M664.53 145.179C663.651 143.751 662.491 142.516 661.12 141.551C659.749 140.586 658.195 139.911 656.554 139.566C655.953 139.44 655.342 139.363 654.729 139.335L570.91 64.3641C569.264 62.6711 567.068 61.6214 564.717 61.4035C564.253 61.3502 563.786 61.3355 563.32 61.3595C561.386 61.4474 559.52 62.0971 557.949 63.2293C556.378 64.3614 555.171 65.9268 554.476 67.7342C553.78 69.5415 553.626 71.5125 554.032 73.406C554.439 75.2996 555.387 77.0337 556.763 78.3964L588.853 106.384L641.549 152.333C641.592 153.198 641.721 154.057 641.934 154.897C642.565 157.331 643.92 159.515 645.82 161.16C647.719 162.805 650.074 163.833 652.572 164.109C654.85 164.375 657.157 163.994 659.228 163.009C660.87 162.24 662.326 161.125 663.496 159.74C663.617 159.597 663.727 159.465 663.837 159.311C665.376 157.305 666.266 154.878 666.39 152.353C666.514 149.828 665.865 147.326 664.53 145.179H664.53Z" fill="#FFB8B8"/>
<path d="M521.166 217.432L520.385 185.669L519.724 159.311L519.273 140.865L518.382 104.909C518.206 102.984 517.473 101.152 516.273 99.6365C515.074 98.121 513.459 96.9878 511.626 96.375C509.794 95.7623 507.822 95.6967 505.953 96.1861C504.083 96.6755 502.397 97.6988 501.099 99.1311C500.794 99.4584 500.518 99.8119 500.274 100.188C498.92 102.128 498.31 104.492 498.558 106.846L500.516 159.311L501.496 185.669L502.749 219.292C502.388 219.786 502.061 220.304 501.771 220.844C500.988 222.328 500.515 223.955 500.381 225.628C500.247 227.3 500.454 228.983 500.99 230.573C501.548 232.24 502.454 233.77 503.647 235.062C504.84 236.354 506.293 237.378 507.91 238.068C509.527 238.757 511.272 239.096 513.03 239.062C514.787 239.028 516.518 238.621 518.107 237.87C519.953 236.996 521.555 235.682 522.773 234.042C523.991 232.402 524.786 230.488 525.088 228.467C525.39 226.447 525.191 224.383 524.506 222.459C523.822 220.534 522.675 218.808 521.165 217.432H521.166Z" fill="#FFB8B8"/>
<path d="M596.634 127.46L588.855 106.384L576.27 72.2441C575.362 69.7601 573.907 67.5126 572.012 65.6683C570.117 63.824 567.831 62.4303 565.324 61.5906C565.126 61.5245 564.917 61.4585 564.719 61.4034C562.291 60.666 559.731 60.4632 557.217 60.809C554.703 61.1547 552.293 62.0409 550.154 63.4065L507.766 90.3045C503.884 92.7623 501.109 96.6334 500.027 101.1C498.945 105.567 499.641 110.279 501.968 114.242C507.269 123.412 513.045 132.298 519.273 140.865C524.213 147.589 533.41 148.305 535.005 159.31H566.259L597.899 130.894L596.634 127.46Z" fill="#CCCCCC"/>
<path d="M111.292 385.04C125.371 385.04 136.784 373.622 136.784 359.538C136.784 345.454 125.371 334.036 111.292 334.036C97.2137 334.036 85.8008 345.454 85.8008 359.538C85.8008 373.622 97.2137 385.04 111.292 385.04Z" fill="#A0616A"/>
<path d="M173.873 341.983C174.124 342.183 174.368 342.395 174.604 342.619C175.775 343.723 176.699 345.062 177.317 346.548C177.935 348.034 178.232 349.634 178.189 351.243C178.145 352.852 177.763 354.433 177.066 355.884C176.369 357.334 175.374 358.621 174.145 359.66C173.858 359.901 173.56 360.126 173.25 360.335L174.975 418.605C175.024 420.513 174.457 422.385 173.358 423.945C172.259 425.505 170.687 426.668 168.875 427.263L168.769 427.286L121.477 432.324C120.191 432.461 118.891 432.342 117.652 431.973C116.412 431.605 115.258 430.994 114.256 430.177C113.254 429.359 112.424 428.351 111.813 427.211C111.202 426.071 110.823 424.821 110.698 423.534C110.573 422.246 110.704 420.947 111.084 419.71C111.464 418.474 112.084 417.325 112.91 416.329C113.736 415.334 114.751 414.513 115.896 413.912C117.042 413.311 118.294 412.944 119.582 412.83L153.295 409.86L159.125 359.397C158.743 359.06 158.386 358.696 158.056 358.308C156.228 356.144 155.269 353.377 155.366 350.545C155.463 347.713 156.608 345.018 158.579 342.984C160.55 340.949 163.207 339.72 166.034 339.535C168.86 339.35 171.654 340.223 173.873 341.983H173.873Z" fill="#A0616A"/>
<path d="M153.278 714.464H166.003L172.055 665.364H153.275L153.278 714.464Z" fill="#A0616A"/>
<path d="M150.031 710.308L175.09 710.307H175.091C177.188 710.307 179.264 710.72 181.202 711.523C183.139 712.326 184.9 713.503 186.383 714.986C187.866 716.47 189.042 718.231 189.845 720.169C190.647 722.108 191.06 724.185 191.06 726.283V726.802L150.032 726.804L150.031 710.308Z" fill="#2F2E41"/>
<path d="M26.8066 696.864L37.7396 703.376L68.0511 664.287L51.9146 654.676L26.8066 696.864Z" fill="#A0616A"/>
<path d="M26.1423 691.632L47.6733 704.457L47.6742 704.458C49.4761 705.531 51.049 706.949 52.3032 708.63C53.5573 710.312 54.4681 712.224 54.9836 714.258C55.499 716.291 55.6091 718.406 55.3073 720.483C55.0056 722.559 54.2981 724.555 53.2252 726.358L52.9597 726.804L17.707 705.806L26.1423 691.632Z" fill="#2F2E41"/>
<path d="M169.004 697.122H154.756C153.602 697.124 152.489 696.698 151.631 695.926C150.773 695.154 150.232 694.092 150.112 692.944L135.747 557.862C135.711 557.522 135.564 557.203 135.329 556.955C135.094 556.707 134.783 556.543 134.446 556.489C134.108 556.435 133.762 556.493 133.461 556.655C133.16 556.817 132.921 557.074 132.78 557.385L106.866 614.79L60.9877 689.632C60.394 690.591 59.4746 691.305 58.398 691.641C57.3214 691.978 56.1596 691.916 55.1253 691.465L36.7971 683.398C36.1911 683.131 35.6488 682.738 35.206 682.246C34.7632 681.753 34.4301 681.172 34.2289 680.541C34.0276 679.91 33.9627 679.243 34.0385 678.585C34.1144 677.927 34.3291 677.293 34.6687 676.724L76.8439 606.076L89.7786 546.551C85.7105 520.737 103.151 482.359 103.327 481.974L103.414 481.786L151.453 463.002L151.694 463.297C170.639 525.495 182.184 592.43 173.66 692.841C173.555 694.006 173.019 695.09 172.159 695.881C171.298 696.673 170.173 697.115 169.004 697.122V697.122Z" fill="#2F2E41"/>
<path d="M101.48 488.076L101.256 487.605C101.149 487.38 90.4672 464.841 82.2328 440.752C80.6503 436.094 80.052 431.157 80.4759 426.256C80.8999 421.354 82.3367 416.594 84.6955 412.277C87.0849 407.915 90.3539 404.097 94.2952 401.065C98.2365 398.033 102.764 395.853 107.592 394.663V394.663C115.972 392.653 124.796 393.722 132.454 397.676C140.113 401.629 146.097 408.203 149.317 416.201C155.848 432.541 153.767 449.982 151.808 463.698L151.769 463.973L151.519 464.093L101.48 488.076Z" fill="#3F3D56"/>
<path d="M142.2 345.132H101.723V327.481C110.607 323.95 119.301 320.947 124.556 327.481C129.236 327.481 133.723 329.34 137.032 332.651C140.341 335.961 142.2 340.451 142.2 345.132V345.132Z" fill="#2F2E41"/>
<path d="M99.483 324.366C75.2848 324.366 68.5117 354.71 68.5117 371.829C68.5117 381.376 72.8275 384.79 79.6092 385.946L82.0042 373.167L87.6137 386.496C89.5187 386.505 91.52 386.468 93.5947 386.43L95.4967 382.512L99.7379 386.359C116.725 386.385 130.454 388.862 130.454 371.829C130.454 354.71 124.514 324.366 99.483 324.366Z" fill="#2F2E41"/>
<path d="M212.322 728H1.10012C0.808347 728 0.528527 727.884 0.322216 727.678C0.115904 727.471 0 727.191 0 726.9C0 726.608 0.115904 726.328 0.322216 726.121C0.528527 725.915 0.808347 725.799 1.10012 725.799H212.322C212.614 725.799 212.894 725.915 213.1 726.121C213.307 726.328 213.422 726.608 213.422 726.9C213.422 727.191 213.307 727.471 213.1 727.678C212.894 727.884 212.614 728 212.322 728Z" fill="#CCCCCC"/>
<path d="M216.293 365.911H168.988C166.217 365.908 163.561 364.806 161.602 362.845C159.642 360.885 158.54 358.228 158.537 355.456V308.131C158.54 305.359 159.642 302.702 161.602 300.741C163.561 298.781 166.217 297.679 168.988 297.676H216.293C219.064 297.679 221.72 298.781 223.68 300.741C225.639 302.702 226.741 305.359 226.744 308.131V355.456C226.741 358.228 225.639 360.885 223.68 362.845C221.72 364.806 219.064 365.908 216.293 365.911V365.911Z" fill="white"/>
<path d="M216.293 365.911H168.988C166.217 365.908 163.561 364.806 161.602 362.845C159.642 360.885 158.54 358.228 158.537 355.456V308.131C158.54 305.359 159.642 302.702 161.602 300.741C163.561 298.781 166.217 297.679 168.988 297.676H216.293C219.064 297.679 221.72 298.781 223.68 300.741C225.639 302.702 226.741 305.359 226.744 308.131V355.456C226.741 358.228 225.639 360.885 223.68 362.845C221.72 364.806 219.064 365.908 216.293 365.911V365.911ZM168.988 299.877C166.801 299.879 164.703 300.75 163.157 302.297C161.61 303.845 160.74 305.943 160.737 308.131V355.456C160.74 357.644 161.61 359.742 163.157 361.29C164.703 362.837 166.801 363.708 168.988 363.71H216.293C218.481 363.708 220.578 362.837 222.125 361.29C223.672 359.742 224.542 357.644 224.544 355.456V308.131C224.542 305.943 223.672 303.845 222.125 302.297C220.578 300.75 218.481 299.879 216.293 299.877H168.988Z" fill="#3F3D56"/>
<path d="M208.043 346.651H177.24C176.365 346.65 175.526 346.302 174.907 345.683C174.288 345.064 173.94 344.225 173.939 343.349V320.237C173.94 319.362 174.288 318.523 174.907 317.904C175.526 317.285 176.365 316.936 177.24 316.935H185.911C186.475 316.933 187.03 317.077 187.523 317.352C188.015 317.627 188.428 318.025 188.722 318.506L191.141 322.438H208.043C208.918 322.439 209.757 322.787 210.376 323.406C210.994 324.025 211.342 324.865 211.343 325.74V343.349C211.342 344.225 210.994 345.064 210.376 345.683C209.757 346.302 208.918 346.65 208.043 346.651V346.651Z" fill="#FFE615"/>
<path d="M207.039 358.327C207.193 358.609 207.335 358.899 207.466 359.197C208.117 360.669 208.45 362.262 208.443 363.871C208.436 365.481 208.089 367.071 207.425 368.537C206.761 370.003 205.795 371.312 204.59 372.378C203.385 373.445 201.969 374.244 200.433 374.725C200.076 374.835 199.713 374.927 199.346 374.999L178.335 429.373C177.64 431.15 176.391 432.656 174.773 433.667C173.156 434.678 171.255 435.14 169.354 434.985L169.249 434.965L123.707 421.249C122.469 420.876 121.317 420.262 120.318 419.441C119.318 418.62 118.491 417.609 117.885 416.467C117.278 415.324 116.904 414.073 116.783 412.785C116.662 411.497 116.798 410.198 117.182 408.963C117.566 407.727 118.191 406.581 119.021 405.588C119.85 404.596 120.868 403.778 122.016 403.181C123.163 402.585 124.417 402.222 125.706 402.113C126.994 402.004 128.292 402.152 129.523 402.547L161.745 412.897L186.692 368.652C186.472 368.192 186.284 367.718 186.13 367.233C185.285 364.528 185.474 361.606 186.662 359.034C187.849 356.462 189.95 354.422 192.556 353.313C195.162 352.203 198.087 352.101 200.764 353.028C203.44 353.955 205.677 355.844 207.039 358.327H207.039Z" fill="#A0616A"/>
</g>
<defs>
<clipPath id="clip0">
<rect width="964" height="728" fill="white"/>
</clipPath>
</defs>
</svg>
