<?xml version="1.0" encoding="UTF-8"?>
<svg width="1618px" height="1019px" viewBox="0 0 1618 1019" version="1.1" xmlns="http://www.w3.org/2000/svg" xmlns:xlink="http://www.w3.org/1999/xlink">
    <title>lod-propose</title>
    <g id="Page-1" stroke="none" stroke-width="1" fill="none" fill-rule="evenodd">
        <g id="lod-propose" fill-rule="nonzero">
            <path d="M1388.72888,822 L174.269278,822 C165.979152,822 158.031102,818.700778 152.169224,812.855217 C146.307345,807.009656 143,799.082953 143,790.813474 L143,43.8506951 C143,37.7925518 145.42273,31.9843903 149.717068,27.700543 C154.012019,23.4166956 159.834663,21 165.90804,21 L1396.69226,21 C1402.87169,21 1408.79365,23.4583185 1413.16462,27.81623 C1417.53558,32.1742027 1420,38.0828099 1420,44.2457449 L1420,790.813474 C1420,799.082953 1416.68959,807.009656 1410.82894,812.855217 C1404.96828,818.700778 1397.01717,822 1388.72888,822 Z" id="Path" fill="#F2F2F2"></path>
            <path d="M1344.91266,785 L213.08918,785 C196.498231,785 183,772.368209 183,756.834602 L183,104.891842 C183,93.3723106 193.00214,84 205.297,84 L1352.33028,84 C1364.82989,84 1375,93.5269105 1375,105.23601 L1375,756.834602 C1375,772.368209 1361.50116,785 1344.91266,785 Z" id="Path" fill="#FFFFFF"></path>
            <path d="M1420,47 L143,47 L143,31.1756946 C143,22.9077414 146.322668,14.9820472 152.205997,9.13753846 C158.089326,3.29298096 166.064956,0.00682578106 174.38266,0 L1388.61857,0 C1396.93137,0.00678594947 1404.907,3.29291387 1410.79216,9.13747747 C1416.67733,14.9820472 1420,22.9076804 1420,31.1756946 L1420,47 Z" id="Path" fill="#FFE615"></path>
            <path d="M200.499679,32 C205.194049,32 209,28.1943991 209,23.5 C209,18.8056009 205.194049,15 200.499679,15 C195.805309,15 192,18.8056009 192,23.5 C192,28.1943991 195.805309,32 200.499679,32 Z" id="Path" fill="#FFFFFF"></path>
            <path d="M230.500321,32 C235.194691,32 239,28.1943991 239,23.5 C239,18.8056009 235.194691,15 230.500321,15 C225.805951,15 222,18.8056009 222,23.5 C222,28.1943991 225.805951,32 230.500321,32 Z" id="Path" fill="#FFFFFF"></path>
            <path d="M261.500321,32 C266.194691,32 270,28.1943991 270,23.5 C270,18.8056009 266.194691,15 261.500321,15 C256.805309,15 253,18.8056009 253,23.5 C253,28.1943991 256.805309,32 261.500321,32 Z" id="Path" fill="#FFFFFF"></path>
            <path d="M745.77732,699 L351.222066,699 C342.414064,698.993874 333.969608,695.502126 327.74143,689.296616 C321.513252,683.084981 318.009826,674.674156 318,665.89578 L318,190.760781 C318.007369,184.195682 320.627724,177.902572 325.285654,173.260385 C329.94297,168.618811 336.25835,166.007351 342.845775,166 L753.754448,166 C760.448111,166.007351 766.865431,168.660467 771.600124,173.376164 C776.328675,178.092474 778.993859,184.486661 779,191.155899 L779,665.89578 C778.987718,674.674156 775.487362,683.084981 769.260412,689.296616 C763.033462,695.502126 754.583479,698.993874 745.77732,699 Z M342.845775,169.783339 C337.264856,169.790078 331.914838,172.002131 327.968646,175.934329 C324.022455,179.86714 321.803106,185.1991 321.796965,190.760781 L321.796965,665.89578 C321.805563,673.669513 324.908598,681.124701 330.425037,686.61961 C335.941476,692.114518 343.42057,695.208084 351.222066,695.220336 L745.77732,695.220336 C753.5825,695.208084 761.056068,692.114518 766.576805,686.61961 C772.091402,681.124701 775.192595,673.669513 775.204877,665.89578 L775.204877,191.155899 C775.198736,185.489466 772.932716,180.057042 768.916517,176.050721 C764.894178,172.043787 759.440991,169.790078 753.754448,169.783339 L342.845775,169.783339 Z" id="Shape" fill="#CCCCCC"></path>
            <path d="M383.253824,666 L715.74067,666 C723.765785,666 731.460597,662.804466 737.136897,657.12488 C742.807081,651.43916 746,643.729397 746,635.694561 L746,229.306665 C746,221.268763 742.807081,213.560227 737.136897,207.876347 C731.460597,202.193081 723.765785,199 715.74067,199 L383.253824,199 C375.229934,199 367.53451,202.193081 361.861268,207.876347 C356.187414,213.560227 353,221.268763 353,229.306665 L353,635.694561 C353,643.729397 356.187414,651.43916 361.861268,657.12488 C367.53451,662.804466 375.229934,666 383.253824,666 Z" id="Path" fill="#E6E6E6"></path>
            <path d="M640.65212,282 L456.350338,282 C453.074985,282 449.93362,280.735646 447.617087,278.485516 C445.301168,276.234787 444,273.183002 444,270.000299 C444,266.817595 445.301168,263.765213 447.617087,261.515082 C449.93362,259.264354 453.074985,258 456.350338,258 L640.65212,258 C643.928089,258 647.068838,259.264354 649.385986,261.515082 C651.703135,263.765213 653,266.817595 653,270.000299 C653,273.183002 651.703135,276.234787 649.385986,278.485516 C647.068838,280.735646 643.928089,282 640.65212,282 Z" id="Path" fill="#FFFFFF"></path>
            <path d="M640.65212,549 L456.350338,549 C453.074985,549 449.93362,547.736213 447.617087,545.485428 C445.301168,543.235241 444,540.182783 444,537 C444,533.817217 445.301168,530.765356 447.617087,528.514572 C449.93362,526.264385 453.074985,525 456.350338,525 L640.65212,525 C643.928089,525 647.068838,526.264385 649.385986,528.514572 C651.703135,530.765356 653,533.817217 653,537 C653,540.182783 651.703135,543.235241 649.385986,545.485428 C647.068838,547.736213 643.928089,549 640.65212,549 Z" id="Path" fill="#FFFFFF"></path>
            <path d="M640.65212,608 L456.350338,608 C453.074985,608 449.93362,606.735646 447.617087,604.484918 C445.301168,602.234787 444,599.182405 444,595.999701 C444,592.817595 445.301168,589.765213 447.617087,587.514484 C449.93362,585.264354 453.074985,584 456.350338,584 L640.65212,584 C643.928089,584 647.068838,585.264354 649.385986,587.514484 C651.703135,589.765213 653,592.817595 653,595.999701 C653,599.182405 651.703135,602.234787 649.385986,604.484918 C647.068838,606.735646 643.928089,608 640.65212,608 Z" id="Path" fill="#FFFFFF"></path>
            <path d="M549.499086,464 C590.091782,464 623,431.092959 623,390.499695 C623,349.907041 590.091782,317 549.499086,317 C508.90639,317 476,349.907041 476,390.499695 C476,431.092959 508.90639,464 549.499086,464 Z" id="Path" fill="#FFFFFF"></path>
            <path d="M1024.71262,323.040621 L992.407199,329.836744 C992.125056,329.896762 991.855179,330.021085 991.628238,330.200527 C991.401296,330.379356 991.21729,330.609017 991.088485,330.870524 C990.965814,331.132031 990.898345,331.419261 990.904479,331.708939 C990.910612,331.999231 990.978081,332.284623 991.106886,332.54368 L994.11846,338.458519 L848.035653,412.422171 C847.814845,412.534858 847.618572,412.689803 847.452966,412.878431 C847.293493,413.067059 847.170822,413.285696 847.091086,413.521481 C847.017483,413.757879 846.986816,414.006525 847.005216,414.254558 C847.023617,414.50198 847.091086,414.743277 847.20149,414.964976 C847.318027,415.186063 847.471366,415.383265 847.661506,415.544946 C847.851647,415.706627 848.072454,415.829113 848.305529,415.906279 C848.544738,415.983445 848.79008,416.013454 849.041556,415.994469 C849.286898,415.974871 849.53224,415.907504 849.753048,415.794817 L995.835855,341.831165 L998.847429,347.746615 C998.976233,348.00506 999.166373,348.229822 999.399448,348.403752 C999.632523,348.577681 999.902399,348.69588 1000.19068,348.749774 C1000.47282,348.803055 1000.76723,348.789582 1001.04937,348.711191 C1001.32538,348.633413 1001.58913,348.491329 1001.8038,348.297801 L1026.36868,326.298742 C1026.68149,326.0207 1026.89003,325.648343 1026.96976,325.238628 C1027.04337,324.829525 1026.98203,324.406337 1026.79189,324.035205 C1026.60788,323.664073 1026.30121,323.365208 1025.92093,323.185154 C1025.54678,323.005712 1025.12357,322.954881 1024.71262,323.040621 Z" id="Path" fill="#E6E6E6"></path>
            <path d="M1024.71262,505.959399 L992.407199,499.163274 C992.125056,499.103256 991.855179,498.978933 991.628238,498.799491 C991.401296,498.620662 991.21729,498.391001 991.088485,498.129494 C990.965814,497.867986 990.898345,497.580757 990.904479,497.291078 C990.910612,497.000787 990.978081,496.715395 991.106886,496.456337 L994.11846,490.541498 L848.035653,416.577217 C847.814845,416.465143 847.618572,416.310198 847.452966,416.12157 C847.293493,415.932942 847.170822,415.714305 847.091086,415.47852 C847.017483,415.242122 846.986816,414.993476 847.005216,414.745442 C847.023617,414.498021 847.091086,414.256724 847.20149,414.035024 C847.318027,413.813937 847.471366,413.616735 847.661506,413.455054 C847.851647,413.293373 848.072454,413.170887 848.305529,413.093721 C848.544738,413.016555 848.79008,412.986546 849.041556,413.005531 C849.286898,413.025129 849.53224,413.092496 849.753048,413.205183 L995.835855,487.168851 L998.847429,481.253399 C998.976233,480.994954 999.166373,480.770192 999.399448,480.596262 C999.632523,480.422333 999.902399,480.304134 1000.19068,480.25024 C1000.47282,480.196959 1000.76723,480.210432 1001.04937,480.288823 C1001.32538,480.366602 1001.58913,480.508685 1001.8038,480.702213 L1026.36868,502.701276 C1026.68149,502.979319 1026.89003,503.351676 1026.96976,503.761391 C1027.04337,504.170494 1026.98203,504.593682 1026.79189,504.964814 C1026.60788,505.335946 1026.30121,505.634811 1025.92093,505.814253 C1025.54678,505.994307 1025.12357,506.045139 1024.71262,505.959399 Z" id="Path" fill="#E6E6E6"></path>
            <path d="M1132,365 C1123.69387,365 1115.573,362.565871 1108.66873,358.006078 C1101.75827,353.445674 1096.37936,346.964232 1093.19894,339.381476 C1090.01853,331.79811 1089.18483,323.453658 1090.809,315.403622 C1092.427,307.353587 1096.42876,299.958965 1102.30172,294.154926 C1108.17468,288.350886 1115.65946,284.398862 1123.80503,282.797284 C1131.95677,281.196317 1140.39877,282.017874 1148.07499,285.158726 C1155.74504,288.300188 1162.30966,293.619234 1166.92281,300.443958 C1171.53595,307.268683 1174,315.291842 1174,323.50008 C1173.98765,334.502223 1169.55977,345.051134 1161.68593,352.831186 C1153.81209,360.611237 1143.13454,364.987173 1132,365 Z M1132,285.772603 C1124.44729,285.772603 1117.06749,287.985614 1110.78694,292.130659 C1104.51257,296.276314 1099.61535,302.168312 1096.72519,309.062059 C1093.83503,315.955806 1093.08161,323.541616 1094.55139,330.859886 C1096.02735,338.178155 1099.66476,344.900872 1105.00044,350.17716 C1110.3423,355.453449 1117.14777,359.046309 1124.55227,360.5019 C1131.95677,361.958102 1139.633,361.210455 1146.61138,358.355468 C1153.58977,355.499871 1159.55536,350.663986 1163.74857,344.459858 C1167.94177,338.255729 1170.1835,330.961893 1170.1835,323.50008 C1170.17115,313.497244 1166.14468,303.907935 1158.98721,296.835217 C1151.82973,289.762498 1142.12175,285.784208 1132,285.772603 Z" id="Shape" fill="#E6E6E6"></path>
            <path d="M1132,548 C1123.69387,548 1115.573,545.566472 1108.66873,541.006049 C1101.75827,536.446237 1096.37936,529.964769 1093.19894,522.381371 C1090.01853,514.798585 1089.18483,506.454099 1090.809,498.404031 C1092.427,490.353352 1096.42876,482.95931 1102.30172,477.155247 C1108.17468,471.351184 1115.65946,467.398533 1123.80503,465.797559 C1131.95677,464.195975 1140.39877,465.018146 1148.07499,468.15901 C1155.74504,471.299874 1162.30966,476.618942 1166.92281,483.443694 C1171.53595,490.268447 1174,498.292249 1174,506.499911 C1173.98765,517.502709 1169.55977,528.051053 1161.68593,535.831136 C1153.81209,543.611219 1143.13454,547.987783 1132,548 Z M1132,468.77289 C1124.44729,468.77289 1117.06749,470.985299 1110.78694,475.130971 C1104.51257,479.276644 1099.61535,485.168665 1096.72519,492.062441 C1093.83503,498.956217 1093.08161,506.542058 1094.55139,513.860357 C1096.02735,521.178656 1099.66476,527.90079 1105.00044,533.1771 C1110.3423,538.45341 1117.14777,542.046896 1124.55227,543.502492 C1131.95677,544.958089 1139.633,544.21105 1146.61138,541.355441 C1153.58977,538.499832 1159.55536,533.664538 1163.74857,527.460385 C1167.94177,521.256231 1170.1835,513.961754 1170.1835,506.499911 C1170.17115,496.497644 1166.14468,486.908296 1158.98721,479.835549 C1151.82973,472.762801 1142.12175,468.783885 1132,468.77289 Z" id="Shape" fill="#E6E6E6"></path>
            <path d="M1127.39789,344 C1126.17552,344.001847 1124.99037,343.609526 1124.0162,342.882344 L1123.95415,342.837242 L1111.2154,333.145382 C1110.62593,332.695604 1110.12953,332.134617 1109.75724,331.494547 C1109.39114,330.854478 1109.14915,330.147683 1109.04987,329.414322 C1108.95059,328.681579 1109,327.936479 1109.19259,327.22227 C1109.38494,326.508062 1109.7138,325.838337 1110.16676,325.252018 C1110.61972,324.665082 1111.18437,324.172674 1111.82969,323.802595 C1112.475,323.432516 1113.18236,323.192799 1113.92075,323.0958 C1114.65914,322.998801 1115.40373,323.04761 1116.12351,323.238519 C1116.84328,323.429427 1117.51342,323.759347 1118.10288,324.209126 L1126.35546,330.502316 L1145.85139,305.203516 C1146.29815,304.617198 1146.8628,304.124789 1147.50811,303.755329 C1148.15343,303.38525 1148.86079,303.144915 1149.59918,303.048534 C1150.33757,302.951535 1151.08216,303 1151.80193,303.191252 C1152.52171,303.382161 1153.19184,303.712081 1153.78131,304.161241 L1153.78131,304.162477 L1153.66342,304.329908 L1153.78752,304.162477 C1154.97887,305.071919 1155.75448,306.41384 1155.95304,307.893537 C1156.1454,309.373234 1155.74207,310.869612 1154.82995,312.054605 L1131.90268,341.798056 C1131.37526,342.483227 1130.69272,343.037418 1129.91089,343.418618 C1129.12907,343.7992 1128.27279,343.995669 1127.39789,343.993197 L1127.39789,344 Z" id="Path" fill="#E6E6E6"></path>
            <path d="M1112.83719,524.163867 C1112.57249,523.898917 1112.36319,523.584058 1112.21545,523.237774 C1112.07387,522.891491 1112,522.519944 1112,522.145317 C1112,521.77069 1112.07387,521.399144 1112.21545,521.05286 C1112.36319,520.706577 1112.57249,520.392334 1112.83719,520.127384 L1145.13065,487.834902 C1145.66621,487.300072 1146.39259,486.999385 1147.14976,487 C1147.90693,487 1148.63331,487.300688 1149.16887,487.836134 C1149.70443,488.370963 1150,489.096803 1150,489.853451 C1150.00606,490.610099 1149.70443,491.335939 1149.16887,491.871385 L1116.87541,524.163867 C1116.61071,524.428817 1116.29061,524.638929 1115.94588,524.782494 C1115.60116,524.92606 1115.23181,525 1114.8563,525 C1114.4808,525 1114.11145,524.92606 1113.76057,524.782494 C1113.41584,524.638929 1113.10189,524.428817 1112.83719,524.163867 Z" id="Path" fill="#E6E6E6"></path>
            <path d="M1147.16294,524.163867 C1147.4276,523.898917 1147.63686,523.584058 1147.78458,523.237774 C1147.92614,522.891491 1148,522.52056 1148,522.145317 C1148,521.77069 1147.92614,521.39976 1147.78458,521.053477 C1147.63686,520.707193 1147.4276,520.392334 1147.16294,520.127384 L1114.87464,487.834902 C1114.33916,487.300072 1113.61289,486.999385 1112.85585,487 C1112.0988,487 1111.37253,487.300688 1110.83706,487.836134 C1110.30159,488.370963 1110.00615,489.096803 1110,489.853451 C1110,490.610099 1110.30159,491.335939 1110.83706,491.871385 L1143.12536,524.163867 C1143.39002,524.428817 1143.70392,524.638929 1144.05475,524.782494 C1144.39942,524.92606 1144.76871,525 1145.14415,525 C1145.5196,525 1145.88889,524.92606 1146.23971,524.782494 C1146.58439,524.638929 1146.89828,524.428817 1147.16294,524.163867 Z" id="Path" fill="#E6E6E6"></path>
            <path d="M1203.76659,416 C1203.64257,416 1203.51855,415.990787 1203.39453,415.97359 C1203.06587,415.926297 1202.74342,415.815127 1202.45817,415.645609 C1202.16672,415.475477 1201.91868,415.251296 1201.72024,414.985349 L1186.05014,394.192992 C1185.98193,394.104548 1185.89512,394.035758 1185.7897,393.99215 C1185.69048,393.948543 1185.57886,393.932574 1185.46724,393.945472 C1185.35562,393.95837 1185.2502,393.999521 1185.16339,394.06524 C1185.07658,394.130959 1185.00216,394.218789 1184.95875,394.319517 L1176.92837,412.921038 C1176.71754,413.405024 1176.35787,413.812236 1175.9052,414.085553 C1175.45252,414.358256 1174.91923,414.484166 1174.39213,414.444243 C1173.85884,414.40432 1173.35656,414.201636 1172.94729,413.863828 C1172.53802,413.526021 1172.24657,413.070288 1172.11634,412.560506 L1156.08038,351.152636 C1155.95636,350.667421 1155.97496,350.156411 1156.14239,349.684094 C1156.30982,349.211778 1156.61987,348.799653 1157.02294,348.499926 C1157.43221,348.200813 1157.9159,348.027609 1158.42438,348.003042 C1158.92667,347.978474 1159.42896,348.103156 1159.86303,348.361732 L1214.76729,381.090362 C1215.21997,381.362451 1215.57963,381.768434 1215.79047,382.251191 C1216.0013,382.734563 1216.05711,383.27137 1215.93929,383.785451 C1215.82767,384.300147 1215.55482,384.766936 1215.16416,385.120098 C1214.76729,385.47326 1214.2712,385.695599 1213.74411,385.75579 L1193.44182,388.066393 C1193.3302,388.078677 1193.22478,388.119828 1193.13176,388.185547 C1193.04495,388.251266 1192.97674,388.338482 1192.93333,388.43921 C1192.88992,388.540552 1192.87132,388.651107 1192.88372,388.75982 C1192.89612,388.869147 1192.93953,388.972946 1193.00774,389.060776 L1208.67784,409.852518 C1209.08091,410.388711 1209.24834,411.061869 1209.15532,411.723357 C1209.05611,412.384846 1208.69644,412.981844 1208.15695,413.381685 L1205.28586,415.499431 C1204.84558,415.82434 1204.31229,416 1203.76659,416 Z" id="Path" fill="#FFE615"></path>
            <path d="M1291.88933,461 L1223.11067,461 C1218.04251,461 1213.1845,458.998608 1209.5997,455.435108 C1206.0149,451.872223 1204,447.039473 1204,442 C1204,436.961142 1206.0149,432.128392 1209.5997,428.564892 C1213.1845,425.002008 1218.04251,423 1223.11067,423 L1291.88933,423 C1296.95749,423 1301.82168,425.002008 1305.4003,428.564892 C1308.9851,432.128392 1311,436.961142 1311,442 C1311,447.039473 1308.9851,451.872223 1305.4003,455.435108 C1301.82168,458.998608 1296.95749,461 1291.88933,461 Z" id="Path" fill="#FFE615"></path>
            <path d="M463.714594,329.498821 L460.844723,327.381708 C460.303366,326.981256 459.944942,326.384878 459.847585,325.722781 C459.750228,325.061299 459.921378,324.388761 460.32445,323.851959 L475.99526,303.061014 C476.061612,302.972571 476.10316,302.868773 476.116182,302.759447 C476.129204,302.650735 476.112461,302.540181 476.068433,302.439454 C476.024406,302.338113 475.954333,302.250898 475.865037,302.185179 C475.776361,302.119461 475.670943,302.078925 475.560563,302.066027 L455.257528,299.755444 C454.729194,299.695253 454.232485,299.472917 453.838095,299.119757 C453.443705,298.766598 453.170856,298.299814 453.057996,297.785737 C452.945136,297.271046 452.997845,296.734858 453.208683,296.25149 C453.419521,295.768123 453.777944,295.362143 454.233726,295.090057 L509.136441,262.362331 C509.569899,262.103757 510.071568,261.978462 510.576958,262.00303 C511.082348,262.027597 511.569135,262.200799 511.974687,262.499909 C512.380859,262.799634 512.687194,263.211756 512.855244,263.684068 C513.023294,264.15638 513.045618,264.667386 512.919115,265.152596 L496.88492,326.559922 C496.752216,327.0697 496.461385,327.525429 496.053352,327.863233 C495.645319,328.201038 495.140549,328.404334 494.609735,328.443643 C494.07954,328.483565 493.549346,328.35827 493.094805,328.084956 C492.640264,327.811641 492.283081,327.404433 492.074103,326.920452 L484.038713,308.319709 C483.995305,308.218367 483.925232,308.130538 483.835936,308.06482 C483.747261,307.999102 483.642462,307.957951 483.532082,307.945053 C483.422323,307.932155 483.310083,307.948124 483.208385,307.991731 C483.106687,308.035339 483.018011,308.104742 482.951659,308.192571 L467.280849,328.984744 C467.081173,329.250688 466.830649,329.474868 466.542917,329.644998 C466.255186,329.814515 465.937069,329.925683 465.60531,329.972976 C465.481908,329.990787 465.357266,330 465.232624,330 C464.685066,330 464.152392,329.823727 463.714594,329.498821 Z" id="Path" fill="#3F3D56"></path>
            <path d="M359,355.999692 C359.005563,350.962762 361.020524,346.133166 364.602952,342.57157 C368.184762,339.009358 373.041683,337.005537 378.1069,337 L446.892482,337 C451.960171,337 456.820183,339.001975 460.403847,342.564802 C463.986893,346.128244 466,350.960916 466,355.999692 C466,361.039084 463.986893,365.871756 460.403847,369.434583 C456.820183,372.998025 451.960171,375 446.892482,375 L378.1069,375 C373.041683,374.993848 368.184762,372.990642 364.602952,369.42843 C361.020524,365.866834 359.005563,361.037238 359,355.999692 Z" id="Path" fill="#3F3D56"></path>
            <path d="M1369.77253,699.858422 C1371.86266,697.967531 1373.50357,695.651651 1374.58919,693.064764 C1375.67481,690.484036 1376.1677,687.693893 1376.03668,684.903751 C1375.9119,682.107449 1375.16319,679.378899 1373.85296,676.89672 C1372.53649,674.420699 1370.68969,672.258801 1368.43734,670.558846 L1390,606 L1355.42862,615.242578 L1340.2549,675.135173 C1337.61572,679.058618 1336.52386,683.795085 1337.19145,688.457641 C1337.85905,693.120197 1340.23618,697.376242 1343.87363,700.425073 C1347.51732,703.473905 1352.15928,705.099948 1356.93227,704.99524 C1361.70525,704.890533 1366.27234,703.061234 1369.77253,699.858422 Z" id="Path" fill="#A0616A"></path>
            <path d="M1573.2234,695.858486 C1571.13304,693.967618 1569.49196,691.651767 1568.40622,689.064912 C1567.32673,686.484217 1566.82754,683.694109 1566.95858,680.904001 C1567.08337,678.107734 1567.83216,675.373059 1569.14877,672.897069 C1570.45914,670.42108 1572.30614,668.253049 1574.56497,666.559275 L1553,602 L1587.56885,611.243695 L1602.74419,671.135544 C1605.3899,675.052782 1606.47563,679.795349 1605.80797,684.457847 C1605.1403,689.120345 1602.76291,693.376337 1599.12507,696.42513 C1595.48723,699.473924 1590.83853,701.099947 1586.06504,700.995241 C1581.29154,700.890535 1576.72396,699.061259 1573.2234,695.858486 Z" id="Path" fill="#A0616A"></path>
            <path d="M1473.49694,375 C1499.18294,375 1520,354.181365 1520,328.5 C1520,302.818635 1499.18294,282 1473.49694,282 C1447.81706,282 1427,302.818635 1427,328.5 C1427,354.181365 1447.81706,375 1473.49694,375 Z" id="Path" fill="#A0616A"></path>
            <polygon id="Path" fill="#A0616A" points="1430.99374 995 1407.28285 995 1396 905 1431 905"></polygon>
            <path d="M1436,1017 L1361,1016.99389 L1361,1016.05237 C1361,1012.23742 1361.75491,1008.45914 1363.22177,1004.93764 C1364.68863,1001.41003 1366.83674,998.20644 1369.54951,995.510291 C1372.25614,992.814143 1375.47831,990.674343 1379.01964,989.213165 C1382.56097,987.751987 1386.35393,987 1390.18985,987 L1390.18985,987 L1436,987.006114 L1436,1017 Z" id="Path" fill="#2F2E41"></path>
            <polygon id="Path" fill="#A0616A" points="1509.99374 995 1486.28084 995 1475 905 1510 905"></polygon>
            <path d="M1516,1017 L1441,1016.99389 L1441,1016.05237 C1441,1012.23742 1441.75491,1008.45914 1443.22177,1004.93764 C1444.68863,1001.41003 1446.83674,998.20644 1449.54951,995.510291 C1452.26227,992.814143 1455.47831,990.674343 1459.01964,989.213165 C1462.56097,987.751987 1466.36007,987 1470.18985,987 L1470.19599,987 L1516,987.006114 L1516,1017 Z" id="Path" fill="#2F2E41"></path>
            <path d="M1429.81251,968 L1402.53854,967.926511 C1401.37455,968.073489 1400.18607,967.975504 1399.05884,967.638678 C1397.92549,967.301853 1396.88403,966.726188 1395.9896,965.960676 C1395.07679,965.182916 1394.34164,964.221432 1393.82704,963.137467 C1393.31244,962.053502 1393.03063,960.877676 1393,959.677353 L1396.14276,658.261564 L1522,657 L1514.69754,957.46043 C1514.65465,959.683477 1513.74184,961.802414 1512.1429,963.357935 C1510.55008,964.913455 1508.4059,965.776953 1506.17595,965.764705 L1478.05656,965.764705 C1475.85112,965.770829 1473.72532,964.919579 1472.13862,963.388555 C1470.5458,961.863655 1469.61462,959.775338 1469.5411,957.570663 L1462.73486,777.240514 C1462.73486,777.118032 1462.71036,777.001674 1462.66747,776.885316 C1462.61846,776.775082 1462.55108,776.670973 1462.46531,776.585235 C1462.37342,776.499498 1462.26927,776.432133 1462.159,776.389264 C1462.0426,776.346395 1461.92007,776.328023 1461.80368,776.328023 C1461.55863,776.321899 1461.3197,776.413761 1461.14204,776.579111 C1460.96438,776.744462 1460.85411,776.971053 1460.84186,777.216017 L1437.15786,960.197901 C1437.01083,962.145364 1436.20217,963.976469 1434.86665,965.397259 C1433.53113,966.818049 1431.7484,967.736664 1429.81251,968 Z" id="Path" fill="#2F2E41"></path>
            <path d="M1454.42382,678 C1435.72558,678 1415.96802,674.678492 1398.13817,664.953412 C1396.8017,664.228942 1395.68695,663.160657 1394.89246,661.871347 C1394.10413,660.575897 1393.67301,659.096261 1393.64222,657.579787 L1391.14788,519.668445 L1387.63735,490.157369 C1385.53102,472.603107 1388.67203,454.821068 1396.66621,439.035003 C1404.65422,423.248938 1417.14435,410.159372 1432.56609,401.404344 L1434.18587,400.484636 L1438.75573,389.873002 C1439.12526,388.995657 1439.75346,388.252155 1440.56027,387.739501 C1441.36708,387.226846 1442.30938,386.970212 1443.264,387 L1504.64917,388.748846 C1505.62843,388.779544 1506.57073,389.106169 1507.3529,389.685745 C1508.13507,390.264706 1508.72016,391.068376 1509.02811,391.989312 L1511.87965,400.50858 C1527.63397,409.514717 1540.27807,423.065978 1548.14291,439.373907 C1556.00775,455.681835 1558.7238,473.980827 1555.93384,491.857416 L1530.77497,657.702578 C1530.5471,659.194494 1529.92505,660.600456 1528.97659,661.773114 C1528.02813,662.951911 1526.78405,663.854428 1525.36751,664.394711 C1514.23233,668.606456 1485.83391,678 1454.42382,678 Z" id="Path" fill="#3F3D56"></path>
            <path d="M1572.70117,660 C1571.73886,660 1570.80122,659.712809 1570.00546,659.175089 C1569.2097,658.63737 1568.599,657.873563 1568.24739,656.987548 L1537.02771,577.024368 L1511.49556,452.448182 C1510.53325,447.748023 1510.97739,442.871273 1512.78481,438.419811 C1514.58607,433.968348 1517.67041,430.137707 1521.6492,427.400225 C1525.08516,425.033648 1529.07629,423.565918 1533.24015,423.133909 C1537.404,422.7019 1541.61104,423.319056 1545.47263,424.929159 C1549.32805,426.538652 1552.71466,429.087932 1555.31167,432.339913 C1557.90868,435.591894 1559.62974,439.440867 1560.31447,443.528758 L1567.46396,485.950556 L1602.89684,648.347372 C1603.15593,649.551131 1602.92152,650.809883 1602.2553,651.85477 C1601.58908,652.899657 1600.54041,653.645132 1599.32518,653.932323 L1573.78686,659.877791 C1573.43524,659.963337 1573.07129,660 1572.70117,660 Z" id="Path" fill="#3F3D56"></path>
            <path d="M1373.29444,660 C1372.93048,660 1372.56652,659.963337 1372.20873,659.877791 L1346.66983,653.932323 C1345.46074,653.645132 1344.40587,652.899657 1343.73964,651.85477 C1343.07341,650.809883 1342.84516,649.551131 1343.10425,648.347372 L1378.5441,485.90595 L1385.68142,443.528758 C1386.37233,439.440867 1388.09343,435.591894 1390.6905,432.339913 C1393.28141,429.087932 1396.66809,426.538652 1400.52977,424.929159 C1404.38528,423.319056 1408.59241,422.7019 1412.76253,423.133909 C1416.92648,423.565918 1420.91153,425.033648 1424.34756,427.400225 C1428.33262,430.137707 1431.41086,433.968348 1433.21832,438.419811 C1435.01962,442.871273 1435.46994,447.748023 1434.50144,452.448182 L1409.01806,576.871606 L1377.74833,656.987548 C1377.40287,657.873563 1376.78599,658.63737 1375.99021,659.175089 C1375.20061,659.712809 1374.25678,660 1373.29444,660 Z" id="Path" fill="#3F3D56"></path>
            <path d="M1510.79592,372.589464 C1506.49124,375.079391 1489.47456,376.731125 1488.26215,371.888094 L1488.23765,371.782087 C1487.39264,368.233941 1488.09682,364.528634 1488.33563,360.889273 C1488.58056,357.249295 1488.22541,353.250621 1485.75771,350.573949 C1481.16523,345.585467 1472.99062,348.23009 1466.3407,346.968485 C1462.44628,346.094546 1459.00498,343.824644 1456.65975,340.583425 C1454.3084,337.341589 1453.21845,333.35031 1453.58585,329.357182 C1453.6777,328.600343 1453.82466,327.842888 1453.98999,327.086049 C1454.40637,325.168065 1454.37576,323.179822 1453.89814,321.276014 C1453.42052,319.372822 1452.51427,317.606453 1451.24062,316.116195 C1449.9731,314.625936 1448.37492,313.451849 1446.57466,312.686382 C1444.78053,311.920914 1442.8272,311.58502 1440.87999,311.704586 C1434.16272,312.091018 1426.91272,314.137196 1421.35888,309.135154 C1417.06032,305.267139 1416.01323,295.198342 1417.89921,289.718654 C1421.07108,280.509622 1441.40047,275.688778 1450.27314,273.038609 C1461.24611,269.849776 1472.79467,269.160116 1484.06768,271.020165 C1495.34069,272.880215 1506.06261,277.243134 1515.44964,283.791519 C1521.05247,287.764308 1526.28789,292.755872 1528.67598,299.219205 C1531.06407,305.682538 1529.91289,313.837665 1524.52438,318.104438 C1528.70048,322.549944 1531.63967,328.021004 1533.05415,333.969094 C1534.46251,339.917185 1534.29718,346.13399 1532.56429,351.995796 C1529.90065,360.61686 1517.2009,368.882308 1510.79592,372.589464 Z" id="Path" fill="#2F2E41"></path>
            <path d="M214.82297,630.890529 C212.053883,630.604802 209.379712,629.716562 206.98845,628.26929 C204.597188,626.828229 202.547623,624.871616 200.983658,622.542315 C199.419081,620.206803 198.378683,617.554506 197.935335,614.771768 C197.491375,611.987788 197.656099,609.139208 198.416037,606.42666 L143,567.114274 L175.683435,554 L223.296794,593.342201 C227.709452,594.938548 231.390955,598.120063 233.643211,602.282989 C235.895467,606.445915 236.562938,611.302042 235.518254,615.933313 C234.47357,620.560857 231.7896,624.63558 227.975829,627.393472 C224.161445,630.151365 219.481185,631.393658 214.82297,630.890529 Z" id="Path" fill="#FFB8B8"></path>
            <path d="M186.25734,600.839821 L135.369641,571.699508 C130.256903,568.846537 125.801109,564.974254 122.286024,560.328741 C118.770939,555.683842 116.272938,550.36697 114.951599,544.717486 C113.75755,539.371771 113.686764,533.841954 114.741724,528.46801 C115.796685,523.094066 117.956279,517.990753 121.086387,513.473498 L163.212764,452.124501 C166.192607,447.784597 170.723533,444.716227 175.897743,443.534904 C181.071332,442.352968 186.506954,443.145835 191.114255,445.75395 C195.721555,448.361451 199.160266,452.59212 200.741775,457.59786 C202.323904,462.602985 201.930856,468.01375 199.642728,472.74579 L166.748339,540.791813 L200.071791,569.761525 C201.223616,570.764882 202.084846,572.053598 202.565446,573.493891 C203.046046,574.934798 203.129871,576.475733 202.807609,577.958983 L199.034838,595.256001 C198.754798,596.574173 198.159947,597.80643 197.298718,598.850904 C196.438109,599.895377 195.336579,600.721382 194.086026,601.259574 C192.841682,601.811267 191.481845,602.061033 190.120146,601.987392 C188.758446,601.914365 187.434002,601.521 186.25734,600.839821 L186.25734,600.839821 Z" id="Path" fill="#3F3D56"></path>
            <path d="M413.056756,464.23232 C412.207088,466.904268 410.780882,469.358237 408.878243,471.420706 C406.976222,473.482559 404.644115,475.103512 402.046293,476.16871 C399.448472,477.233907 396.648584,477.717414 393.843752,477.585886 C391.038302,477.453739 388.296501,476.709645 385.810526,475.404855 L335.99773,522 L330,487.09733 L378.222836,448.201248 C380.694598,444.17758 384.558579,441.198731 389.083139,439.829103 C393.608317,438.460092 398.478923,438.79478 402.772373,440.771417 C407.065824,442.747436 410.48427,446.227082 412.380111,450.550858 C414.275335,454.875252 414.516331,459.743052 413.056756,464.23232 Z" id="Path" fill="#FFB8B8"></path>
            <path d="M210.5,404 C236.181381,404 257,383.181365 257,357.5 C257,331.818635 236.181381,311 210.5,311 C184.818619,311 164,331.818635 164,357.5 C164,383.181365 184.818619,404 210.5,404 Z" id="Path" fill="#FFB8B8"></path>
            <polygon id="Path" fill="#FFB8B8" points="346.649794 993 369 986.35001 353.985426 897 321 906.814893"></polygon>
            <path d="M339,988.548588 L383.187602,975.235021 L383.189455,975.235021 C386.887558,974.120339 390.766026,973.757128 394.603726,974.157913 C398.441426,974.564959 402.163001,975.72974 405.555966,977.589631 C408.94893,979.449523 411.946574,981.966952 414.378414,985.004148 C416.809637,988.035082 418.627496,991.523162 419.727599,995.267993 L420,996.194808 L347.651349,1018 L339,988.548588 Z" id="Path" fill="#2F2E41"></path>
            <polygon id="Path" fill="#FFB8B8" points="103 992 126.715693 992 138 902 114.603462 902"></polygon>
            <path d="M98,984.006114 L143.806432,984 L143.808273,984 C147.641586,984 151.437462,984.751987 154.979256,986.213165 C158.521051,987.674343 161.739413,989.814143 164.449613,992.510291 C167.160427,995.20644 169.310912,998.410026 170.77771,1001.93153 C172.244507,1005.45914 173,1009.23742 173,1013.05237 L173,1013.99389 L98.0018412,1014 L98,984.006114 Z" id="Path" fill="#2F2E41"></path>
            <path d="M331.155598,960.292947 L244.152717,710.320372 C243.969725,709.769853 243.61904,709.292736 243.150236,708.95019 C242.681432,708.607645 242.117154,708.424138 241.536964,708.418021 C240.955549,708.387437 240.378419,708.540359 239.892478,708.864554 C239.405926,709.182632 239.036269,709.653632 238.837364,710.198035 L138.584963,960.433636 C137.931942,962.079077 136.777681,963.479844 135.285588,964.440195 C133.793494,965.394428 132.038234,965.859312 130.267062,965.767558 L104.100345,964.501363 C102.840205,964.440195 101.610054,964.097649 100.49741,963.504311 C99.3853785,962.910974 98.4190062,962.079077 97.6686754,961.063675 C96.9183446,960.054389 96.4030276,958.886064 96.1600575,957.650454 C95.9164754,956.414843 95.9513603,955.136414 96.2616521,953.919154 L191.091597,580.751927 L286.231834,573 L286.85303,573.8949 C287.367122,574.636266 338.272725,649.463495 338.2409,778.645965 L370.860095,955.962194 C371.085317,957.18557 371.038191,958.445648 370.721779,959.656791 C370.405367,960.861818 369.827013,961.981207 369.027721,962.941558 C368.229041,963.895792 367.229008,964.666519 366.098615,965.198688 C364.968223,965.72474 363.735012,966 362.487113,966 L339.198092,966 C337.429979,966 335.705932,965.44948 334.264636,964.427961 C332.823952,963.400324 331.737013,961.95674 331.155598,960.292947 Z" id="Path" fill="#2F2E41"></path>
            <path d="M156.32838,495.788217 C152.963035,486.21092 152.132314,475.933876 153.915596,465.94518 C155.699493,455.956483 160.037704,446.591621 166.514254,438.750531 C172.839428,430.953519 181.075876,424.903734 190.431644,421.182767 C199.788028,417.461187 209.949288,416.192704 219.940712,417.499144 C220.733282,417.604443 221.520929,417.710966 222.304268,417.818714 C235.021689,419.525534 246.843777,425.274116 256.005095,434.206151 C265.165797,443.138799 271.174681,454.775544 273.135184,467.380795 L291,580.306451 L189.152333,587.946738 L188.421299,588 L156.32838,495.788217 Z" id="Path" fill="#3F3D56"></path>
            <path d="M305.041435,542.969721 C299.454131,542.779215 293.967999,541.429646 288.930973,539.007944 C283.893948,536.586241 279.416455,533.14481 275.783504,528.902515 L227.484199,473.002988 C223.737121,468.811865 221.776598,463.326043 222.020275,457.713834 C222.1708,454.779801 222.946249,451.911736 224.294185,449.300144 C225.642122,446.688552 227.532317,444.39447 229.838306,442.569562 C233.64399,439.535652 238.390454,437.920978 243.260298,438.002976 C248.130142,438.084974 252.818617,439.85871 256.520044,443.019624 L314.120419,492.305091 L349.557882,467.692876 C350.828705,466.808781 352.316062,466.285353 353.862025,466.178078 C355.407371,466.070803 356.952716,466.383381 358.334583,467.083134 L375.295139,475.654654 C376.507356,476.267478 377.556094,477.15897 378.355602,478.255765 C379.155727,479.351942 379.68318,480.622596 379.894779,481.962301 C380.106994,483.302006 379.997185,484.673153 379.574605,485.962302 C379.152642,487.251452 378.42963,488.422229 377.465409,489.378457 L335.295049,531.192898 C331.53625,534.945057 327.072946,537.919781 322.159918,539.945675 C317.247508,541.97157 311.982845,543.009795 306.667595,543 C306.127187,543 305.585545,542.990066 305.041435,542.969721 Z" id="Path" fill="#3F3D56"></path>
            <path d="M246.861908,346.33217 C252.675611,348.576483 258.801707,349.918292 265.024964,350.310419 C271.284503,350.388232 277.938838,348.229696 281.36409,343.484962 C282.67823,341.412205 283.526241,339.080888 283.850933,336.65154 C284.175624,334.22158 283.968388,331.751181 283.243981,329.408836 C281.947059,324.659813 279.612722,320.254514 276.408237,316.507252 C273.203751,312.759991 269.207215,309.762672 264.704577,307.729739 C259.97318,305.593874 254.86482,304.408916 249.672213,304.242262 C244.479606,304.076221 239.304832,304.93216 234.445525,306.760451 C230.932337,296.131364 217.70115,290.346269 205.454493,290.019088 C180.437245,289.350634 158.069185,306.329111 147.200008,326.744825 C136.33083,347.160538 134.743039,370.496983 134.067213,393.153334 C133.902407,398.679258 133.832918,404.440458 136.463044,409.429046 C140.378407,416.856785 149.276681,420.857091 157.663935,424.029029 C179.657492,432.334764 202.347169,438.682929 225.467308,443 C214.366296,435.937429 210.845113,420.736389 217.87641,410.22923 C221.31642,405.088692 226.965933,400.808996 227.879743,394.855409 C228.975577,387.716251 222.856246,381.47347 220.592628,374.563461 C219.448213,370.822326 219.396558,366.834887 220.443196,363.066181 C221.489835,359.296862 223.591107,355.901902 226.502878,353.276491 C229.672312,350.536505 233.460996,348.601604 237.546085,347.637217 C241.630559,346.673443 245.889063,346.70898 249.956933,347.740763" id="Path" fill="#2F2E41"></path>
            <path d="M472.103593,1017.854 L1.89599632,1017.854 C1.39314787,1017.854 0.91089494,1017.656 0.555324101,1017.308 C0.199755101,1016.966 0,1016.492 0,1016 C0,1015.508 0.199755101,1015.04 0.555324101,1014.692 C0.91089494,1014.344 1.39314787,1014.146 1.89599632,1014.146 L472.103593,1014.146 C472.606521,1014.146 473.088596,1014.344 473.444326,1014.692 C473.800055,1015.04 474,1015.508 474,1016 C474,1016.492 473.800055,1016.966 473.444326,1017.308 C473.088596,1017.656 472.606521,1017.854 472.103593,1017.854 Z" id="Path" fill="#CCCCCC"></path>
            <path d="M1616.10192,1017.854 L1281.89808,1017.854 C1281.39438,1017.854 1280.90911,1017.656 1280.55284,1017.308 C1280.19657,1016.966 1280,1016.492 1280,1016 C1280,1015.508 1280.19657,1015.04 1280.55284,1014.692 C1280.90911,1014.344 1281.39438,1014.146 1281.89808,1014.146 L1616.10192,1014.146 C1616.60562,1014.146 1617.09089,1014.344 1617.44716,1014.692 C1617.80343,1015.04 1618,1015.508 1618,1016 C1618,1016.492 1617.80343,1016.966 1617.44716,1017.308 C1617.09089,1017.656 1616.60562,1017.854 1616.10192,1017.854 Z" id="Path" fill="#CCCCCC"></path>
        </g>
    </g>
</svg>