<svg width="264" height="166" viewBox="0 0 264 166" fill="none" xmlns="http://www.w3.org/2000/svg">
<g clip-path="url(#clip0)">
<path d="M226.641 134.198H28.5362C27.1839 134.197 25.8874 133.659 24.9312 132.704C23.975 131.749 23.4371 130.454 23.4355 129.103V7.07032C23.4366 6.08059 23.8307 5.1317 24.5312 4.43184C25.2318 3.73198 26.1816 3.3383 27.1723 3.33716H227.94C228.948 3.3383 229.914 3.73878 230.627 4.45074C231.34 5.16271 231.74 6.12801 231.742 7.13486V129.103C231.74 130.454 231.202 131.749 230.246 132.704C229.29 133.659 227.993 134.197 226.641 134.198Z" fill="#F2F2F2"/>
<path d="M219.415 127.908H34.7862C32.0798 127.908 29.8779 125.849 29.8779 123.317V17.0494C29.8779 15.1717 31.5095 13.644 33.5151 13.644H220.625C222.664 13.644 224.323 15.1969 224.323 17.1055V123.317C224.323 125.849 222.121 127.908 219.415 127.908Z" fill="white"/>
<path d="M231.671 7.70519H23.3643V5.11095C23.3662 3.7555 23.9063 2.45616 24.866 1.49801C25.8257 0.539852 27.1267 0.00111902 28.4835 0H226.552C227.908 0.00111249 229.209 0.539841 230.169 1.498C231.129 2.45616 231.669 3.75549 231.671 5.11095V7.70519Z" fill="#FFE615"/>
<path d="M32.6669 5.18299C33.3982 5.18299 33.9911 4.59074 33.9911 3.86017C33.9911 3.1296 33.3982 2.53735 32.6669 2.53735C31.9356 2.53735 31.3428 3.1296 31.3428 3.86017C31.3428 4.59074 31.9356 5.18299 32.6669 5.18299Z" fill="white"/>
<path d="M37.6933 5.18299C38.4246 5.18299 39.0174 4.59074 39.0174 3.86017C39.0174 3.1296 38.4246 2.53735 37.6933 2.53735C36.962 2.53735 36.3691 3.1296 36.3691 3.86017C36.3691 4.59074 36.962 5.18299 37.6933 5.18299Z" fill="white"/>
<path d="M42.7197 5.18299C43.451 5.18299 44.0438 4.59074 44.0438 3.86017C44.0438 3.1296 43.451 2.53735 42.7197 2.53735C41.9883 2.53735 41.3955 3.1296 41.3955 3.86017C41.3955 4.59074 41.9883 5.18299 42.7197 5.18299Z" fill="white"/>
<path d="M121.638 114.197H57.3884C55.9541 114.196 54.579 113.626 53.5648 112.613C52.5506 111.599 51.9801 110.226 51.9785 108.793V31.231C51.9797 30.1593 52.4064 29.132 53.1649 28.3742C53.9233 27.6165 54.9517 27.1902 56.0244 27.189H122.937C124.027 27.1902 125.072 27.6233 125.843 28.3931C126.613 29.163 127.047 30.2068 127.048 31.2955V108.793C127.046 110.226 126.476 111.599 125.462 112.613C124.448 113.626 123.072 114.196 121.638 114.197ZM56.0244 27.8066C55.1156 27.8077 54.2444 28.1688 53.6018 28.8107C52.9592 29.4527 52.5978 30.3231 52.5968 31.231V108.793C52.5982 110.062 53.1035 111.279 54.0018 112.176C54.9001 113.073 56.118 113.578 57.3884 113.58H121.638C122.909 113.578 124.126 113.073 125.025 112.176C125.923 111.279 126.428 110.062 126.43 108.793V31.2955C126.429 30.3705 126.06 29.4837 125.406 28.8297C124.751 28.1756 123.863 27.8077 122.937 27.8066H56.0244Z" fill="#CCCCCC"/>
<path d="M62.3348 108.793H116.692C118.004 108.793 119.262 108.272 120.19 107.346C121.117 106.419 121.639 105.162 121.639 103.852V37.5945C121.639 36.284 121.117 35.0272 120.19 34.1005C119.262 33.1739 118.004 32.6533 116.692 32.6533H62.3348C61.023 32.6533 59.7649 33.1739 58.8374 34.1005C57.9098 35.0272 57.3887 36.284 57.3887 37.5945V103.852C57.3887 105.162 57.9098 106.419 58.8374 107.346C59.7649 108.272 61.023 108.793 62.3348 108.793Z" fill="#E6E6E6"/>
<path d="M104.507 46.1714H74.5211C73.9882 46.1714 73.4771 45.9599 73.1002 45.5835C72.7234 45.207 72.5117 44.6965 72.5117 44.1641C72.5117 43.6317 72.7234 43.1211 73.1002 42.7447C73.4771 42.3682 73.9882 42.1567 74.5211 42.1567H104.507C105.04 42.1567 105.551 42.3682 105.928 42.7447C106.305 43.1211 106.516 43.6317 106.516 44.1641C106.516 44.6965 106.305 45.207 105.928 45.5835C105.551 45.9599 105.04 46.1714 104.507 46.1714Z" fill="white"/>
<path d="M104.507 89.7153H74.5211C73.9882 89.7153 73.4771 89.5039 73.1002 89.1274C72.7234 88.751 72.5117 88.2404 72.5117 87.708C72.5117 87.1756 72.7234 86.6651 73.1002 86.2886C73.4771 85.9122 73.9882 85.7007 74.5211 85.7007H104.507C105.04 85.7007 105.551 85.9122 105.928 86.2886C106.305 86.6651 106.516 87.1756 106.516 87.708C106.516 88.2404 106.305 88.751 105.928 89.1274C105.551 89.5039 105.04 89.7153 104.507 89.7153Z" fill="white"/>
<path d="M104.507 99.2891H74.5211C73.9882 99.2891 73.4771 99.0776 73.1002 98.7011C72.7234 98.3247 72.5117 97.8141 72.5117 97.2817C72.5117 96.7494 72.7234 96.2388 73.1002 95.8623C73.4771 95.4859 73.9882 95.2744 74.5211 95.2744H104.507C105.04 95.2744 105.551 95.4859 105.928 95.8623C106.305 96.2388 106.516 96.7494 106.516 97.2817C106.516 97.8141 106.305 98.3247 105.928 98.7011C105.551 99.0776 105.04 99.2891 104.507 99.2891Z" fill="white"/>
<path d="M89.6685 75.6643C96.327 75.6643 101.725 70.272 101.725 63.6202C101.725 56.9685 96.327 51.5762 89.6685 51.5762C83.01 51.5762 77.6123 56.9685 77.6123 63.6202C77.6123 70.272 83.01 75.6643 89.6685 75.6643Z" fill="white"/>
<path d="M167.225 52.5833L161.958 53.693C161.912 53.7028 161.868 53.7231 161.831 53.7524C161.794 53.7816 161.764 53.8191 161.743 53.8618C161.723 53.9045 161.712 53.9514 161.713 53.9987C161.714 54.0461 161.725 54.0927 161.746 54.135L162.237 55.1008L138.42 67.1779C138.384 67.1963 138.352 67.2216 138.325 67.2524C138.299 67.2832 138.279 67.3189 138.266 67.3574C138.254 67.396 138.249 67.4366 138.252 67.4771C138.255 67.5175 138.266 67.5569 138.284 67.5931C138.303 67.6292 138.328 67.6614 138.359 67.6878C138.39 67.7142 138.426 67.7342 138.464 67.7468C138.503 67.7594 138.543 67.7643 138.584 67.7612C138.624 67.758 138.664 67.747 138.7 67.7286L162.517 55.6515L163.008 56.6174C163.029 56.6596 163.06 56.6963 163.098 56.7247C163.136 56.7531 163.18 56.7724 163.227 56.7812C163.273 56.7899 163.321 56.7877 163.367 56.7749C163.412 56.7622 163.455 56.739 163.49 56.7074L167.495 53.1153C167.546 53.0699 167.58 53.0091 167.593 52.9422C167.605 52.8754 167.595 52.8063 167.564 52.7457C167.534 52.6851 167.484 52.6363 167.422 52.6069C167.361 52.5776 167.292 52.5693 167.225 52.5833Z" fill="#E6E6E6"/>
<path d="M167.225 82.6031L161.958 81.4934C161.912 81.4836 161.868 81.4633 161.831 81.434C161.794 81.4048 161.764 81.3673 161.743 81.3246C161.723 81.2819 161.712 81.235 161.713 81.1877C161.714 81.1403 161.725 81.0937 161.746 81.0514L162.237 80.0856L138.42 68.0084C138.384 67.9901 138.352 67.9648 138.325 67.934C138.299 67.9032 138.279 67.8675 138.266 67.829C138.254 67.7904 138.249 67.7498 138.252 67.7093C138.255 67.6689 138.266 67.6295 138.284 67.5933C138.303 67.5572 138.328 67.525 138.359 67.4986C138.39 67.4722 138.426 67.4522 138.464 67.4396C138.503 67.427 138.543 67.4221 138.584 67.4252C138.624 67.4284 138.664 67.4394 138.7 67.4578L162.517 79.5349L163.008 78.569C163.029 78.5268 163.06 78.4901 163.098 78.4617C163.136 78.4333 163.18 78.414 163.227 78.4052C163.273 78.3965 163.321 78.3987 163.367 78.4115C163.412 78.4242 163.455 78.4474 163.49 78.479L167.495 82.0711C167.546 82.1165 167.58 82.1773 167.593 82.2442C167.605 82.311 167.595 82.3801 167.564 82.4407C167.534 82.5013 167.484 82.5501 167.422 82.5794C167.361 82.6088 167.292 82.6171 167.225 82.6031Z" fill="#E6E6E6"/>
<path d="M184.584 59.4564C183.239 59.4564 181.924 59.0579 180.806 58.3114C179.687 57.5648 178.816 56.5037 178.301 55.2623C177.786 54.0208 177.651 52.6547 177.914 51.3368C178.176 50.0189 178.824 48.8083 179.775 47.8581C180.726 46.9079 181.938 46.2609 183.257 45.9987C184.577 45.7366 185.944 45.8711 187.187 46.3853C188.429 46.8996 189.492 47.7704 190.239 48.8877C190.986 50.005 191.385 51.3185 191.385 52.6623C191.383 54.4635 190.666 56.1905 189.391 57.4642C188.116 58.7379 186.387 59.4543 184.584 59.4564ZM184.584 46.4858C183.361 46.4858 182.166 46.8481 181.149 47.5267C180.133 48.2054 179.34 49.17 178.872 50.2986C178.404 51.4272 178.282 52.6691 178.52 53.8672C178.759 55.0653 179.348 56.1659 180.212 57.0297C181.077 57.8935 182.179 58.4817 183.378 58.72C184.577 58.9584 185.82 58.836 186.95 58.3686C188.08 57.9011 189.046 57.1094 189.725 56.0937C190.404 55.078 190.767 53.8839 190.767 52.6623C190.765 51.0247 190.113 49.4548 188.954 48.2969C187.795 47.139 186.223 46.4877 184.584 46.4858Z" fill="#E6E6E6"/>
<path d="M184.584 89.4119C183.239 89.4119 181.924 89.0135 180.806 88.2669C179.687 87.5204 178.816 86.4593 178.301 85.2178C177.786 83.9764 177.651 82.6103 177.914 81.2924C178.176 79.9744 178.824 78.7639 179.775 77.8137C180.726 76.8635 181.938 76.2164 183.257 75.9543C184.577 75.6921 185.944 75.8267 187.187 76.3409C188.429 76.8551 189.492 77.7259 190.239 78.8432C190.986 79.9605 191.385 81.2741 191.385 82.6178C191.383 84.4191 190.666 86.146 189.391 87.4197C188.116 88.6934 186.387 89.4099 184.584 89.4119ZM184.584 76.4414C183.361 76.4414 182.166 76.8036 181.149 77.4823C180.133 78.161 179.34 79.1256 178.872 80.2542C178.404 81.3828 178.282 82.6247 178.52 83.8228C178.759 85.0209 179.348 86.1214 180.212 86.9852C181.077 87.849 182.179 88.4373 183.378 88.6756C184.577 88.9139 185.82 88.7916 186.95 88.3241C188.08 87.8566 189.046 87.065 189.725 86.0493C190.404 85.0336 190.767 83.8394 190.767 82.6178C190.765 80.9803 190.113 79.4104 188.954 78.2525C187.795 77.0946 186.223 76.4432 184.584 76.4414Z" fill="#E6E6E6"/>
<path d="M184.046 56.0097C183.849 56.01 183.658 55.9465 183.501 55.8288L183.491 55.8215L181.438 54.2528C181.343 54.18 181.263 54.0892 181.203 53.9856C181.144 53.882 181.105 53.7676 181.089 53.6489C181.073 53.5303 181.081 53.4097 181.112 53.2941C181.143 53.1785 181.196 53.0701 181.269 52.9752C181.342 52.8802 181.433 52.8005 181.537 52.7406C181.641 52.6807 181.755 52.6419 181.874 52.6262C181.993 52.6105 182.113 52.6184 182.229 52.6493C182.345 52.6802 182.453 52.7336 182.548 52.8064L183.878 53.825L187.02 49.7302C187.092 49.6353 187.183 49.5556 187.287 49.4958C187.391 49.4359 187.505 49.397 187.624 49.3814C187.743 49.3657 187.863 49.3736 187.979 49.4045C188.095 49.4354 188.203 49.4888 188.298 49.5615L188.298 49.5617L188.279 49.5888L188.299 49.5617C188.491 49.7089 188.616 49.9261 188.648 50.1656C188.679 50.4051 188.614 50.6473 188.467 50.8391L184.772 55.6533C184.687 55.7642 184.577 55.8539 184.451 55.9156C184.325 55.9772 184.187 56.009 184.046 56.0086L184.046 56.0097Z" fill="#E6E6E6"/>
<path d="M181.633 85.5657C181.59 85.5227 181.556 85.4716 181.532 85.4154C181.509 85.3592 181.497 85.2989 181.497 85.2381C181.497 85.1773 181.509 85.117 181.532 85.0608C181.556 85.0046 181.59 84.9536 181.633 84.9106L186.879 79.6697C186.966 79.5829 187.084 79.5341 187.207 79.5342C187.33 79.5342 187.448 79.583 187.535 79.6699C187.622 79.7567 187.67 79.8745 187.67 79.9973C187.671 80.1201 187.622 80.2379 187.535 80.3248L182.289 85.5657C182.246 85.6087 182.194 85.6428 182.138 85.6661C182.082 85.6894 182.022 85.7014 181.961 85.7014C181.9 85.7014 181.84 85.6894 181.783 85.6661C181.727 85.6428 181.676 85.6087 181.633 85.5657Z" fill="#E6E6E6"/>
<path d="M187.226 85.5657C187.269 85.5227 187.303 85.4716 187.327 85.4154C187.35 85.3592 187.362 85.299 187.362 85.2381C187.362 85.1773 187.35 85.1171 187.327 85.0609C187.303 85.0047 187.269 84.9536 187.226 84.9106L181.98 79.6697C181.893 79.5829 181.775 79.5341 181.652 79.5342C181.529 79.5342 181.411 79.583 181.324 79.6699C181.237 79.7567 181.189 79.8745 181.188 79.9973C181.188 80.1201 181.237 80.2379 181.324 80.3248L186.57 85.5657C186.613 85.6087 186.664 85.6428 186.721 85.6661C186.777 85.6894 186.837 85.7014 186.898 85.7014C186.959 85.7014 187.019 85.6894 187.076 85.6661C187.132 85.6428 187.183 85.6087 187.226 85.5657Z" fill="#E6E6E6"/>
<path d="M196.327 67.8414C196.307 67.8414 196.287 67.8399 196.267 67.8371C196.214 67.8294 196.162 67.8113 196.116 67.7837C196.069 67.756 196.029 67.7195 195.997 67.6762L193.47 64.2909C193.459 64.2765 193.445 64.2653 193.428 64.2582C193.412 64.2511 193.394 64.2485 193.376 64.2506C193.358 64.2527 193.341 64.2594 193.327 64.2701C193.313 64.2808 193.301 64.2951 193.294 64.3115L191.999 67.3401C191.965 67.4189 191.907 67.4852 191.834 67.5297C191.761 67.5741 191.675 67.5946 191.59 67.5881C191.504 67.5816 191.423 67.5486 191.357 67.4936C191.291 67.4386 191.244 67.3644 191.223 67.2814L188.637 57.2833C188.617 57.2043 188.62 57.1211 188.647 57.0442C188.674 56.9673 188.724 56.9002 188.789 56.8514C188.855 56.8027 188.933 56.7745 189.015 56.7705C189.096 56.7665 189.177 56.7868 189.247 56.8289L198.101 62.1576C198.174 62.2019 198.232 62.268 198.266 62.3466C198.3 62.4253 198.309 62.5127 198.29 62.5964C198.272 62.6802 198.228 62.7562 198.165 62.8137C198.101 62.8712 198.021 62.9074 197.936 62.9172L194.662 63.2934C194.644 63.2954 194.627 63.3021 194.612 63.3128C194.598 63.3235 194.587 63.3377 194.58 63.3541C194.573 63.3706 194.57 63.3886 194.572 63.4063C194.574 63.4241 194.581 63.441 194.592 63.4553L197.119 66.8405C197.184 66.9278 197.211 67.0374 197.196 67.1451C197.18 67.2528 197.122 67.35 197.035 67.4151L196.572 67.7599C196.501 67.8128 196.415 67.8414 196.327 67.8414Z" fill="#FFE615"/>
<path d="M210.706 75.2062H199.578C198.758 75.2062 197.972 74.8809 197.392 74.3017C196.812 73.7226 196.486 72.9371 196.486 72.118C196.486 71.299 196.812 70.5135 197.392 69.9343C197.972 69.3552 198.758 69.0298 199.578 69.0298H210.706C211.526 69.0298 212.313 69.3552 212.892 69.9343C213.472 70.5135 213.798 71.299 213.798 72.118C213.798 72.9371 213.472 73.7226 212.892 74.3017C212.313 74.8809 211.526 75.2062 210.706 75.2062Z" fill="#FFE615"/>
<path d="M75.8372 53.8634L75.3744 53.5187C75.2871 53.4535 75.2293 53.3564 75.2136 53.2486C75.1979 53.1409 75.2255 53.0314 75.2905 52.944L77.8176 49.5589C77.8283 49.5445 77.835 49.5276 77.8371 49.5098C77.8392 49.4921 77.8365 49.4741 77.8294 49.4577C77.8223 49.4412 77.811 49.427 77.7966 49.4163C77.7823 49.4056 77.7653 49.399 77.7475 49.3969L74.4734 49.0207C74.3882 49.0109 74.3081 48.9747 74.2445 48.9172C74.1809 48.8597 74.1369 48.7837 74.1187 48.7C74.1005 48.6162 74.109 48.5289 74.143 48.4502C74.177 48.3715 74.2348 48.3054 74.3083 48.2611L83.162 42.9325C83.2319 42.8904 83.3128 42.87 83.3943 42.874C83.4758 42.878 83.5543 42.9062 83.6197 42.9549C83.6852 43.0037 83.7346 43.0708 83.7617 43.1477C83.7888 43.2246 83.7924 43.3078 83.772 43.3868L81.1863 53.3849C81.1649 53.4679 81.118 53.5421 81.0522 53.5971C80.9864 53.6521 80.905 53.6852 80.8194 53.6916C80.7339 53.6981 80.6484 53.6777 80.5751 53.6332C80.5018 53.5887 80.4442 53.5224 80.4105 53.4436L79.1147 50.4151C79.1077 50.3986 79.0964 50.3843 79.082 50.3736C79.0677 50.3629 79.0508 50.3562 79.033 50.3541C79.0153 50.352 78.9972 50.3546 78.9808 50.3617C78.9644 50.3688 78.9501 50.3801 78.9394 50.3944L76.4123 53.7797C76.3801 53.823 76.3397 53.8595 76.2933 53.8872C76.2469 53.9148 76.1956 53.9329 76.1421 53.9406C76.1222 53.9435 76.1021 53.9449 76.082 53.945C75.9937 53.9449 75.9078 53.9163 75.8372 53.8634Z" fill="#3F3D56"/>
<path d="M58.6123 58.221C58.6132 57.4023 58.9392 56.6173 59.5188 56.0384C60.0983 55.4594 60.8841 55.1337 61.7036 55.1328H72.8324C73.6523 55.1328 74.4386 55.4582 75.0184 56.0373C75.5981 56.6165 75.9238 57.402 75.9238 58.221C75.9238 59.0401 75.5981 59.8256 75.0184 60.4047C74.4386 60.9839 73.6523 61.3093 72.8324 61.3093H61.7036C60.8841 61.3083 60.0983 60.9827 59.5188 60.4037C58.9392 59.8248 58.6132 59.0398 58.6123 58.221Z" fill="#3F3D56"/>
<path d="M223.612 114.201C223.947 113.894 224.21 113.518 224.384 113.098C224.558 112.679 224.637 112.226 224.616 111.773C224.596 111.319 224.476 110.876 224.266 110.473C224.055 110.071 223.759 109.72 223.398 109.444L226.854 98.9624L221.313 100.463L218.881 110.187C218.458 110.824 218.283 111.593 218.39 112.35C218.497 113.107 218.878 113.798 219.461 114.293C220.045 114.788 220.789 115.052 221.554 115.035C222.319 115.018 223.051 114.721 223.612 114.201Z" fill="#A0616A"/>
<path d="M256.845 113.584C256.51 113.277 256.247 112.901 256.073 112.481C255.9 112.062 255.82 111.609 255.841 111.156C255.861 110.702 255.981 110.258 256.192 109.856C256.402 109.454 256.698 109.102 257.06 108.827L253.604 98.3452L259.144 99.846L261.576 109.57C262 110.206 262.174 110.976 262.067 111.733C261.96 112.49 261.579 113.181 260.996 113.676C260.413 114.171 259.668 114.435 258.903 114.418C258.138 114.401 257.406 114.104 256.845 113.584Z" fill="#A0616A"/>
<path d="M240.605 61.2237C244.799 61.2237 248.198 57.8278 248.198 53.6387C248.198 49.4496 244.799 46.0537 240.605 46.0537C236.412 46.0537 233.013 49.4496 233.013 53.6387C233.013 57.8278 236.412 61.2237 240.605 61.2237Z" fill="#A0616A"/>
<path d="M233.438 162.243H229.649L227.846 147.639H233.439L233.438 162.243Z" fill="#A0616A"/>
<path d="M234.405 165.913L222.185 165.912V165.758C222.185 165.134 222.308 164.516 222.547 163.94C222.786 163.363 223.136 162.839 223.578 162.398C224.019 161.957 224.544 161.607 225.121 161.368C225.698 161.129 226.316 161.006 226.941 161.006H226.941L234.405 161.007L234.405 165.913Z" fill="#2F2E41"/>
<path d="M246.422 162.243H242.632L240.829 147.639H246.423L246.422 162.243Z" fill="#A0616A"/>
<path d="M247.389 165.913L235.169 165.912V165.758C235.169 165.134 235.292 164.516 235.531 163.94C235.77 163.363 236.12 162.839 236.562 162.398C237.004 161.957 237.528 161.607 238.105 161.368C238.682 161.129 239.301 161.006 239.925 161.006H239.926L247.389 161.007L247.389 165.913Z" fill="#2F2E41"/>
<path d="M233.377 157.974L228.925 157.962C228.735 157.986 228.541 157.97 228.357 157.915C228.172 157.86 228.002 157.766 227.856 157.641C227.707 157.514 227.587 157.357 227.503 157.18C227.419 157.003 227.373 156.811 227.368 156.615L227.881 107.397L248.425 107.191L247.233 156.253C247.226 156.616 247.077 156.962 246.816 157.216C246.556 157.47 246.206 157.611 245.842 157.609H241.252C240.892 157.61 240.545 157.471 240.286 157.221C240.026 156.972 239.874 156.631 239.862 156.271L238.751 126.825C238.751 126.805 238.747 126.786 238.74 126.767C238.732 126.749 238.721 126.732 238.707 126.718C238.692 126.704 238.675 126.693 238.657 126.686C238.638 126.679 238.618 126.676 238.599 126.676C238.559 126.675 238.52 126.69 238.491 126.717C238.462 126.744 238.444 126.781 238.442 126.821L234.576 156.7C234.552 157.018 234.42 157.317 234.202 157.549C233.984 157.781 233.693 157.931 233.377 157.974Z" fill="#2F2E41"/>
<path d="M237.21 110.749C234.174 110.749 230.966 110.208 228.071 108.624C227.854 108.506 227.673 108.332 227.544 108.122C227.416 107.911 227.346 107.67 227.341 107.423L226.936 84.9603L226.366 80.1536C226.024 77.2944 226.534 74.3981 227.832 71.8269C229.129 69.2557 231.157 67.1237 233.661 65.6977L233.924 65.5479L234.666 63.8195C234.726 63.6766 234.828 63.5555 234.959 63.472C235.09 63.3885 235.243 63.3467 235.398 63.352L245.365 63.6364C245.524 63.6414 245.677 63.6946 245.804 63.789C245.931 63.8833 246.026 64.0142 246.076 64.1642L246.539 65.5518C249.097 67.0187 251.15 69.2259 252.427 71.8821C253.704 74.5383 254.145 77.5188 253.692 80.4305L249.607 107.443C249.57 107.686 249.469 107.915 249.315 108.106C249.161 108.298 248.959 108.445 248.729 108.533C246.921 109.219 242.31 110.749 237.21 110.749Z" fill="#3F3D56"/>
<path d="M256.687 107.703C256.531 107.703 256.379 107.656 256.25 107.568C256.121 107.48 256.022 107.355 255.965 107.21L250.904 94.1237L246.765 73.7363C246.609 72.9671 246.681 72.169 246.974 71.4405C247.266 70.712 247.766 70.0851 248.411 69.6371C248.968 69.2498 249.615 69.0096 250.29 68.9389C250.965 68.8682 251.647 68.9692 252.273 69.2327C252.898 69.4961 253.447 69.9133 253.868 70.4455C254.289 70.9777 254.568 71.6076 254.679 72.2766L255.838 79.2191L261.582 105.796C261.624 105.993 261.586 106.199 261.478 106.37C261.37 106.541 261.2 106.663 261.003 106.71L256.863 107.683C256.806 107.697 256.747 107.703 256.687 107.703Z" fill="#3F3D56"/>
<path d="M224.078 107.703C224.019 107.703 223.96 107.697 223.902 107.683L219.762 106.71C219.566 106.663 219.395 106.541 219.287 106.37C219.179 106.199 219.142 105.993 219.184 105.796L224.929 79.2118L226.086 72.2766C226.198 71.6076 226.477 70.9777 226.898 70.4455C227.318 69.9133 227.867 69.4961 228.493 69.2327C229.118 68.9692 229.8 68.8682 230.476 68.9389C231.151 69.0096 231.797 69.2498 232.354 69.6371C233 70.0851 233.499 70.712 233.792 71.4405C234.084 72.169 234.157 72.9671 234 73.7363L229.869 94.0987L224.8 107.21C224.744 107.355 224.644 107.48 224.515 107.568C224.387 107.656 224.234 107.703 224.078 107.703Z" fill="#3F3D56"/>
<path d="M246.516 60.875C245.813 61.279 243.034 61.547 242.836 60.7612L242.832 60.744C242.694 60.1683 242.809 59.5671 242.848 58.9766C242.888 58.386 242.83 57.7372 242.427 57.3029C241.677 56.4935 240.342 56.9226 239.256 56.7179C238.62 56.5761 238.058 56.2078 237.675 55.6819C237.291 55.1559 237.113 54.5083 237.173 53.8604C237.188 53.7376 237.212 53.6147 237.239 53.4919C237.307 53.1807 237.302 52.8581 237.224 52.5492C237.146 52.2404 236.998 51.9538 236.79 51.712C236.583 51.4702 236.322 51.2797 236.028 51.1555C235.735 51.0313 235.416 50.9768 235.098 50.9962C234.001 51.0589 232.817 51.3909 231.91 50.5793C231.208 49.9517 231.037 48.318 231.345 47.4289C231.863 45.9347 235.183 45.1525 236.632 44.7225C238.424 44.2051 240.31 44.0932 242.151 44.395C243.992 44.6968 245.743 45.4047 247.276 46.4672C248.191 47.1118 249.046 47.9217 249.436 48.9704C249.826 50.0191 249.638 51.3423 248.758 52.0346C249.44 52.7559 249.92 53.6436 250.151 54.6087C250.381 55.5738 250.354 56.5825 250.071 57.5336C249.636 58.9324 247.562 60.2735 246.516 60.875Z" fill="#2F2E41"/>
<path d="M35.1078 102.872C34.6556 102.826 34.2189 102.683 33.8284 102.45C33.4379 102.218 33.1032 101.903 32.8478 101.528C32.5923 101.152 32.4224 100.725 32.35 100.277C32.2775 99.8288 32.3044 99.3702 32.4285 98.9335L23.3789 92.6045L28.7162 90.4932L36.4916 96.827C37.2122 97.084 37.8134 97.5962 38.1812 98.2664C38.549 98.9366 38.658 99.7184 38.4874 100.464C38.3168 101.209 37.8785 101.865 37.2557 102.309C36.6328 102.753 35.8685 102.953 35.1078 102.872Z" fill="#FFB8B8"/>
<path d="M30.1936 98.0608L21.9982 93.3123C21.1748 92.8474 20.4572 92.2164 19.8911 91.4594C19.325 90.7025 18.9227 89.8361 18.7099 88.9155C18.5176 88.0444 18.5062 87.1433 18.6761 86.2676C18.846 85.3919 19.1938 84.5603 19.6979 83.8242L26.4823 73.8272C26.9622 73.12 27.6919 72.62 28.5252 72.4275C29.3584 72.2349 30.2338 72.3641 30.9758 72.7891C31.7178 73.214 32.2716 73.9034 32.5263 74.7191C32.7811 75.5347 32.7178 76.4164 32.3493 77.1875L27.0517 88.2758L32.4184 92.9965C32.6039 93.16 32.7426 93.37 32.82 93.6047C32.8974 93.8395 32.9109 94.0906 32.859 94.3323L32.2514 97.1509C32.2063 97.3657 32.1105 97.5665 31.9718 97.7367C31.8332 97.9069 31.6558 98.0415 31.4544 98.1292C31.254 98.2191 31.035 98.2598 30.8157 98.2478C30.5964 98.2359 30.3831 98.1718 30.1936 98.0608L30.1936 98.0608Z" fill="#3F3D56"/>
<path d="M67.3276 75.8469C67.1901 76.2796 66.9593 76.677 66.6514 77.011C66.3436 77.3449 65.9662 77.6074 65.5458 77.7799C65.1254 77.9524 64.6723 78.0307 64.2184 78.0094C63.7644 77.988 63.3207 77.8675 62.9184 77.6562L54.8573 85.2019L53.8867 79.5497L61.6905 73.2508C62.0905 72.5992 62.7158 72.1168 63.448 71.895C64.1803 71.6733 64.9685 71.7275 65.6633 72.0476C66.3581 72.3676 66.9113 72.9311 67.2181 73.6313C67.5248 74.3316 67.5638 75.1199 67.3276 75.8469Z" fill="#FFB8B8"/>
<path d="M34.3114 65.9415C38.5047 65.9415 41.904 62.5456 41.904 58.3565C41.904 54.1674 38.5047 50.7715 34.3114 50.7715C30.1181 50.7715 26.7188 54.1674 26.7188 58.3565C26.7188 62.5456 30.1181 65.9415 34.3114 65.9415Z" fill="#FFB8B8"/>
<path d="M56.667 162.12L60.2997 161.04L57.8593 146.529L52.498 148.123L56.667 162.12Z" fill="#FFB8B8"/>
<path d="M55.3867 161.21L62.5404 159.084L62.5407 159.084C63.1394 158.906 63.7673 158.848 64.3886 158.912C65.0099 158.977 65.6124 159.163 66.1617 159.46C66.711 159.757 67.1963 160.159 67.59 160.644C67.9836 161.128 68.2779 161.685 68.456 162.283L68.5001 162.431L56.7873 165.913L55.3867 161.21Z" fill="#2F2E41"/>
<path d="M16.8691 161.934H20.6588L22.462 147.33H18.7233L16.8691 161.934Z" fill="#FFB8B8"/>
<path d="M15.9033 160.698L23.367 160.697H23.3673C23.9919 160.697 24.6104 160.82 25.1875 161.059C25.7646 161.298 26.289 161.648 26.7306 162.089C27.1723 162.53 27.5227 163.054 27.7617 163.63C28.0007 164.207 28.1238 164.825 28.1238 165.449V165.603L15.9036 165.604L15.9033 160.698Z" fill="#2F2E41"/>
<path d="M53.9554 156.893L39.7396 116.027C39.7097 115.937 39.6524 115.859 39.5758 115.803C39.4992 115.747 39.407 115.717 39.3122 115.716C39.2172 115.711 39.1229 115.736 39.0435 115.789C38.964 115.841 38.9036 115.918 38.8711 116.007L22.4904 156.916C22.3837 157.185 22.1951 157.414 21.9513 157.571C21.7075 157.727 21.4207 157.803 21.1313 157.788L16.8558 157.581C16.6499 157.571 16.4489 157.515 16.2671 157.418C16.0854 157.321 15.9275 157.185 15.8049 157.019C15.6823 156.854 15.5981 156.663 15.5584 156.461C15.5186 156.259 15.5243 156.05 15.575 155.851L31.0697 94.8449L46.6151 93.5776L46.7166 93.7239C46.8006 93.8451 55.1183 106.078 55.1131 127.197L60.4429 156.185C60.4797 156.385 60.472 156.591 60.4203 156.789C60.3686 156.986 60.2741 157.169 60.1435 157.326C60.013 157.482 59.8496 157.608 59.6649 157.695C59.4802 157.781 59.2787 157.826 59.0748 157.826H55.2695C54.9806 157.826 54.6989 157.736 54.4634 157.569C54.228 157.401 54.0504 157.165 53.9554 156.893Z" fill="#2F2E41"/>
<path d="M25.5282 81.0078C24.9813 79.4434 24.8463 77.7647 25.1361 76.1331C25.426 74.5015 26.131 72.9718 27.1835 71.691C28.2114 70.4174 29.5499 69.4292 31.0703 68.8214C32.5908 68.2135 34.2421 68.0063 35.8658 68.2197C35.9946 68.2369 36.1226 68.2543 36.2499 68.2719C38.3166 68.5507 40.2378 69.4897 41.7266 70.9487C43.2153 72.4078 44.1918 74.3086 44.5104 76.3676L47.4136 94.8134L30.8624 96.0614L30.7436 96.0701L25.5282 81.0078Z" fill="#3F3D56"/>
<path d="M49.6807 88.4924C48.775 88.4615 47.8857 88.2426 47.0692 87.8498C46.2527 87.457 45.5269 86.8988 44.938 86.2107L37.1087 77.1438C36.5013 76.464 36.1835 75.5742 36.223 74.6639C36.2474 74.188 36.3731 73.7228 36.5916 73.2992C36.8101 72.8756 37.1165 72.5035 37.4903 72.2075C38.1072 71.7154 38.8766 71.4535 39.666 71.4668C40.4554 71.4801 41.2154 71.7678 41.8154 72.2805L51.1524 80.2746L56.8968 76.2825C57.1028 76.1391 57.3439 76.0542 57.5945 76.0368C57.845 76.0194 58.0955 76.0701 58.3195 76.1836L61.0688 77.5739C61.2653 77.6733 61.4353 77.8179 61.5649 77.9958C61.6946 78.1736 61.7801 78.3797 61.8144 78.597C61.8488 78.8143 61.831 79.0367 61.7625 79.2458C61.6941 79.4549 61.5769 79.6448 61.4206 79.7999L54.5848 86.5822C53.9755 87.1908 53.252 87.6733 52.4556 88.0019C51.6593 88.3305 50.8059 88.4989 49.9443 88.4973C49.8567 88.4973 49.7689 88.4957 49.6807 88.4924Z" fill="#3F3D56"/>
<path d="M40.0846 56.4622C41.03 56.8285 42.0262 57.0475 43.0382 57.1115C44.0561 57.1242 45.1382 56.7719 45.6952 55.9975C45.9089 55.6592 46.0468 55.2787 46.0996 54.8822C46.1524 54.4856 46.1187 54.0824 46.0009 53.7001C45.79 52.925 45.4104 52.206 44.8893 51.5944C44.3682 50.9828 43.7183 50.4936 42.9861 50.1618C42.2167 49.8132 41.386 49.6198 40.5416 49.5926C39.6972 49.5655 38.8557 49.7052 38.0655 50.0036C37.4942 48.2688 35.3426 47.3246 33.3511 47.2712C29.2829 47.1621 25.6455 49.9332 23.878 53.2653C22.1105 56.5974 21.8523 60.4062 21.7424 64.104C21.7156 65.0059 21.7043 65.9462 22.132 66.7604C22.7687 67.9727 24.2157 68.6256 25.5796 69.1433C29.1561 70.4989 32.8458 71.535 36.6055 72.2396C34.8003 71.0869 34.2277 68.6059 35.3711 66.891C35.9305 66.052 36.8492 65.3535 36.9978 64.3818C37.176 63.2166 36.1809 62.1977 35.8128 61.0699C35.6267 60.4593 35.6183 59.8085 35.7885 59.1934C35.9587 58.5782 36.3004 58.0241 36.7739 57.5956C37.2893 57.1484 37.9054 56.8326 38.5697 56.6752C39.2339 56.5179 39.9264 56.5237 40.5879 56.6921" fill="#2F2E41"/>
<path d="M76.9742 166H0.309133C0.227146 166 0.148517 165.967 0.0905429 165.909C0.0325691 165.852 0 165.773 0 165.691C0 165.609 0.0325691 165.531 0.0905429 165.473C0.148517 165.415 0.227146 165.382 0.309133 165.382H76.9742C77.0562 165.382 77.1348 165.415 77.1928 165.473C77.2508 165.531 77.2834 165.609 77.2834 165.691C77.2834 165.773 77.2508 165.852 77.1928 165.909C77.1348 165.967 77.0562 166 76.9742 166Z" fill="#CCCCCC"/>
<path d="M263.691 166H209.284C209.202 166 209.123 165.967 209.065 165.909C209.007 165.852 208.975 165.773 208.975 165.691C208.975 165.609 209.007 165.531 209.065 165.473C209.123 165.415 209.202 165.382 209.284 165.382H263.691C263.773 165.382 263.852 165.415 263.91 165.473C263.968 165.531 264 165.609 264 165.691C264 165.773 263.968 165.852 263.91 165.909C263.852 165.967 263.773 166 263.691 166Z" fill="#CCCCCC"/>
</g>
<defs>
<clipPath id="clip0">
<rect width="264" height="166" fill="white"/>
</clipPath>
</defs>
</svg>
