<svg width="285" height="227" viewBox="0 0 285 227" fill="none" xmlns="http://www.w3.org/2000/svg">
<g clip-path="url(#clip0)">
<path d="M269.087 117.905C274.946 108.701 272.712 96.7574 266.482 92.759C260.252 88.7607 248.518 91.7397 242.658 100.944C237.234 109.463 239.026 120.504 243.975 125.086C243.88 125.101 243.788 125.134 243.706 125.184L242.256 126.096C242.146 126.165 242.055 126.262 241.992 126.377C241.929 126.492 241.897 126.621 241.897 126.752C241.898 126.883 241.932 127.011 241.997 127.125C242.061 127.239 242.153 127.335 242.264 127.403L245.377 129.307C245.488 129.375 245.615 129.413 245.745 129.418C245.875 129.424 246.005 129.395 246.121 129.336C246.237 129.277 246.337 129.188 246.409 129.08C246.482 128.971 246.526 128.846 246.537 128.715L246.68 127.004C246.684 126.944 246.68 126.884 246.67 126.825C252.892 129.446 263.651 126.443 269.087 117.905Z" fill="#FFE615"/>
<path d="M266.108 99.7479C267.06 102.814 266.814 106.128 265.42 109.018C264.026 111.908 261.589 114.158 258.604 115.309C257.922 115.573 258.218 116.688 258.909 116.42C262.182 115.179 264.863 112.733 266.405 109.58C267.948 106.426 268.237 102.802 267.215 99.4416C267.001 98.734 265.893 99.0356 266.108 99.7479Z" fill="white"/>
<path d="M56.9014 84.4303C62.9509 76.302 74.023 74.3403 79.5249 78.4682C85.0269 82.5961 86.2907 93.8129 80.2412 101.941C74.6416 109.465 64.4966 111.517 58.9087 108.698C58.9268 108.786 58.9279 108.877 58.912 108.965L58.597 110.529C58.573 110.648 58.519 110.759 58.4402 110.852C58.3614 110.944 58.2604 111.015 58.1468 111.057C58.0332 111.099 57.9107 111.111 57.791 111.092C57.6713 111.074 57.5584 111.025 57.463 110.95L54.7952 108.857C54.6997 108.782 54.6249 108.684 54.5778 108.572C54.5308 108.46 54.513 108.338 54.5263 108.217C54.5395 108.096 54.5833 107.98 54.6535 107.881C54.7237 107.782 54.818 107.703 54.9274 107.651L56.3624 106.965C56.4129 106.943 56.4659 106.926 56.5203 106.916C52.2132 102.344 51.2897 91.9704 56.9014 84.4303Z" fill="#E6E6E6"/>
<path d="M70.1343 81.3612C67.175 81.8331 64.5092 83.4278 62.6871 85.816C60.865 88.2042 60.0256 91.2036 60.3423 94.1951C60.4073 94.8804 59.3409 94.8759 59.2763 94.1951C58.9713 90.9708 59.8916 87.7498 61.8528 85.1782C63.814 82.6065 66.671 80.8744 69.8509 80.3292C70.5219 80.2147 70.8102 81.2458 70.1343 81.3612Z" fill="white"/>
<path d="M209.159 199.194C213.913 191.725 212.101 182.034 207.046 178.79C201.99 175.546 192.469 177.963 187.714 185.431C183.313 192.344 184.767 201.302 188.783 205.02C188.706 205.032 188.632 205.059 188.565 205.1L187.389 205.84C187.299 205.896 187.225 205.975 187.174 206.068C187.123 206.161 187.097 206.265 187.097 206.372C187.098 206.478 187.126 206.582 187.178 206.675C187.23 206.767 187.305 206.845 187.395 206.9L189.92 208.445C190.011 208.5 190.114 208.531 190.219 208.536C190.325 208.54 190.43 208.517 190.525 208.469C190.619 208.42 190.699 208.349 190.758 208.261C190.818 208.173 190.853 208.071 190.862 207.965L190.978 206.576C190.981 206.528 190.978 206.479 190.97 206.431C196.019 208.558 204.748 206.121 209.159 199.194Z" fill="#F2F2F2"/>
<path d="M281.018 30.5229H3.98203C2.92629 30.5241 1.91413 30.9457 1.1676 31.6953C0.421081 32.4448 0.00117244 33.461 0 34.521V223.002C0.00117345 224.062 0.421088 225.078 1.16761 225.828C1.91413 226.577 2.92629 226.999 3.98203 227H281.018C282.074 226.999 283.086 226.577 283.832 225.828C284.579 225.078 284.999 224.062 285 223.002V34.521C284.999 33.461 284.579 32.4448 283.832 31.6953C283.086 30.9457 282.074 30.5241 281.018 30.5229ZM283.862 223.002C283.862 223.759 283.562 224.485 283.029 225.021C282.495 225.556 281.772 225.857 281.018 225.858H3.98203C3.22777 225.857 2.50447 225.556 1.97113 225.021C1.43778 224.485 1.13802 223.759 1.13772 223.002V34.521C1.13802 33.7637 1.43778 33.0375 1.97113 32.502C2.50448 31.9665 3.22777 31.6656 3.98203 31.6653H281.018C281.772 31.6656 282.495 31.9665 283.029 32.502C283.562 33.0375 283.862 33.7637 283.862 34.521V223.002Z" fill="#3F3D56"/>
<path d="M284.431 46.5381H0.568848V47.6804H284.431V46.5381Z" fill="#3F3D56"/>
<path d="M10.2393 42.5174C12.1244 42.5174 13.6525 40.9831 13.6525 39.0905C13.6525 37.1979 12.1244 35.6636 10.2393 35.6636C8.3543 35.6636 6.82617 37.1979 6.82617 39.0905C6.82617 40.9831 8.3543 42.5174 10.2393 42.5174Z" fill="#3F3D56"/>
<path d="M20.0523 42.5174C21.9374 42.5174 23.4655 40.9831 23.4655 39.0905C23.4655 37.1979 21.9374 35.6636 20.0523 35.6636C18.1673 35.6636 16.6392 37.1979 16.6392 39.0905C16.6392 40.9831 18.1673 42.5174 20.0523 42.5174Z" fill="#3F3D56"/>
<path d="M29.8651 42.5174C31.7501 42.5174 33.2782 40.9831 33.2782 39.0905C33.2782 37.1979 31.7501 35.6636 29.8651 35.6636C27.98 35.6636 26.4519 37.1979 26.4519 39.0905C26.4519 40.9831 27.98 42.5174 29.8651 42.5174Z" fill="#3F3D56"/>
<path d="M141.397 105.479C147.81 105.479 153.008 100.26 153.008 93.8217C153.008 87.3834 147.81 82.1641 141.397 82.1641C134.985 82.1641 129.786 87.3834 129.786 93.8217C129.786 100.26 134.985 105.479 141.397 105.479Z" fill="#2F2E41"/>
<path d="M161.084 206.433L156.866 208.49L146.952 193.135L153.178 190.098L161.084 206.433Z" fill="#A0616A"/>
<path d="M153.267 208.751L161.402 204.782L163.891 209.924L150.634 216.392C150.308 215.717 150.116 214.983 150.072 214.234C150.027 213.484 150.13 212.733 150.375 212.024C150.619 211.314 151 210.66 151.497 210.098C151.993 209.537 152.595 209.079 153.267 208.751Z" fill="#2F2E41"/>
<path d="M152.668 206.031C152.531 206.031 152.395 206.015 152.262 205.984C152.008 205.922 151.771 205.806 151.567 205.643C151.363 205.48 151.196 205.274 151.08 205.039L139.761 182.515C139.576 182.143 139.52 181.72 139.602 181.312C139.684 180.905 139.899 180.536 140.213 180.265L146.516 174.942C146.728 174.76 146.981 174.632 147.253 174.568C147.525 174.505 147.809 174.508 148.079 174.578C148.356 174.647 148.612 174.782 148.825 174.971C149.039 175.161 149.204 175.399 149.307 175.666L158.982 200.056C159.133 200.435 159.156 200.853 159.046 201.245C158.936 201.638 158.7 201.983 158.375 202.227L153.715 205.683C153.412 205.909 153.045 206.031 152.668 206.031Z" fill="#2F2E41"/>
<path d="M148.649 217.266L144.327 219.094L135.246 203.229L141.624 200.53L148.649 217.266Z" fill="#A0616A"/>
<path d="M140.72 219.16L149.055 215.634L151.266 220.903L137.684 226.65C137.394 225.958 137.242 225.215 137.237 224.464C137.233 223.714 137.375 222.969 137.657 222.274C137.939 221.578 138.355 220.945 138.88 220.411C139.406 219.877 140.031 219.452 140.72 219.16Z" fill="#2F2E41"/>
<path d="M141.764 217.215C141.459 217.215 141.161 217.134 140.898 216.98C140.635 216.826 140.418 216.605 140.268 216.339C138.695 213.541 134.436 205.764 128.871 194.002C122.267 180.042 136.894 164.57 139.894 161.61C140.029 161.477 140.134 161.315 140.202 161.138C140.27 160.96 140.3 160.77 140.289 160.58L139.639 148.838C139.615 148.412 139.749 147.992 140.016 147.659C140.282 147.326 140.662 147.105 141.083 147.037L158.355 144.224C158.653 144.176 158.959 144.208 159.242 144.315C159.524 144.423 159.774 144.602 159.967 144.837C162.885 148.393 164.138 152.218 163.693 156.208C162.783 164.352 155.141 170.501 154.273 171.175C154.237 171.203 154.204 171.232 154.171 171.263L138.536 186.231C138.341 186.416 138.206 186.657 138.15 186.922C138.093 187.186 138.118 187.461 138.221 187.711L147.893 211.548C148.039 211.906 148.061 212.304 147.955 212.676C147.848 213.049 147.62 213.375 147.306 213.601L142.774 216.887C142.48 217.1 142.126 217.215 141.764 217.215Z" fill="#2F2E41"/>
<path d="M126.631 136.476C126.244 136.477 125.869 136.347 125.564 136.107L111.627 125.11C111.497 125.156 111.365 125.195 111.231 125.227C110.421 125.418 109.572 125.364 108.793 125.071C108.014 124.778 107.338 124.26 106.852 123.581C106.366 122.903 106.092 122.095 106.063 121.26C106.034 120.425 106.253 119.601 106.691 118.89C107.129 118.18 107.767 117.616 108.525 117.27C109.282 116.924 110.125 116.811 110.946 116.945C111.767 117.08 112.53 117.456 113.139 118.026C113.747 118.596 114.174 119.335 114.364 120.148C114.406 120.332 114.435 120.518 114.452 120.705L126.366 129.396L130.92 124.708L135.4 130.596L127.63 136.157C127.338 136.365 126.989 136.477 126.631 136.476Z" fill="#A0616A"/>
<path d="M139.989 108.441C145.178 108.441 149.384 104.217 149.384 99.0076C149.384 93.798 145.178 89.5747 139.989 89.5747C134.8 89.5747 130.594 93.798 130.594 99.0076C130.594 104.217 134.8 108.441 139.989 108.441Z" fill="#A0616A"/>
<path d="M144.425 154.634C143.661 154.64 142.902 154.504 142.187 154.232C141.122 153.816 140.231 153.046 139.663 152.05C136.761 146.967 130.506 131.214 136.331 119.517C140.254 111.641 144.592 109.769 147.542 109.584C150.264 109.416 150.792 110.021 151.701 112.48C152.206 113.844 153.187 115.794 154.323 118.052C158.402 126.158 164.566 138.407 159.408 144.499C153.84 151.077 148.529 154.634 144.425 154.634Z" fill="#FFE615"/>
<path d="M136.814 132.423C136.539 132.423 136.272 132.332 136.053 132.165L128.73 126.554C128.586 126.443 128.467 126.303 128.382 126.143C128.297 125.982 128.248 125.805 128.238 125.623C128.227 125.442 128.256 125.26 128.322 125.091C128.388 124.922 128.49 124.769 128.62 124.642L135.659 117.836C136.137 117.373 136.753 117.079 137.413 117C138.072 116.92 138.74 117.058 139.314 117.393C139.889 117.729 140.338 118.243 140.596 118.858C140.853 119.473 140.903 120.155 140.739 120.802L138.033 131.473C137.964 131.745 137.807 131.986 137.586 132.158C137.365 132.33 137.094 132.424 136.814 132.423Z" fill="#FFE615"/>
<path d="M143.529 147.877C142.62 147.873 141.737 147.574 141.011 147.025C140.285 146.476 139.755 145.707 139.499 144.831C139.334 144.26 139.29 143.659 139.372 143.07C139.453 142.48 139.658 141.914 139.973 141.41C140.287 140.905 140.704 140.473 141.197 140.141C141.689 139.81 142.246 139.586 142.83 139.486H142.83C143.016 139.455 143.203 139.438 143.39 139.433L155.82 124.02L151.669 119.53L157.798 115.402L162.849 123.53C163.045 123.848 163.133 124.221 163.101 124.593C163.069 124.965 162.919 125.317 162.672 125.597L147.595 142.534C147.633 142.667 147.664 142.802 147.687 142.938C147.787 143.525 147.763 144.126 147.615 144.703C147.467 145.279 147.2 145.818 146.83 146.284C146.461 146.749 145.997 147.131 145.471 147.404C144.944 147.678 144.365 147.836 143.773 147.869C143.692 147.874 143.61 147.877 143.529 147.877Z" fill="#A0616A"/>
<path d="M151.811 123.366C151.597 123.366 151.386 123.31 151.199 123.205C151.011 123.1 150.854 122.949 150.741 122.766L145.613 114.414C145.286 113.878 145.13 113.256 145.166 112.629C145.202 112.002 145.428 111.401 145.813 110.906C146.25 110.353 146.862 109.968 147.547 109.814C148.233 109.66 148.951 109.746 149.58 110.06L159.39 114.984C159.576 115.078 159.736 115.216 159.855 115.386C159.975 115.556 160.05 115.754 160.075 115.961C160.1 116.168 160.074 116.378 159.998 116.572C159.923 116.766 159.8 116.938 159.642 117.073L152.624 123.065C152.397 123.259 152.109 123.366 151.811 123.366Z" fill="#FFE615"/>
<path d="M132.336 108.855L138.93 104.777L138.447 103.991L132.24 107.83C132.077 107.416 131.77 107.076 131.377 106.871C130.984 106.666 130.531 106.61 130.1 106.714C129.67 106.818 129.291 107.075 129.033 107.436C128.776 107.798 128.657 108.241 128.699 108.684C128.741 109.126 128.94 109.539 129.261 109.846C129.582 110.153 130.002 110.333 130.444 110.354C130.886 110.375 131.321 110.234 131.669 109.959C132.017 109.684 132.254 109.291 132.336 108.855L132.336 108.855Z" fill="#3F3D56"/>
<path d="M146.505 84.4375C146.505 84.4375 142.101 88.7803 132.542 90.1515C122.982 91.5227 130.493 106.606 130.493 106.606C130.493 106.606 127.762 101.121 133.224 96.3218C138.687 91.5227 146.505 90.6078 146.505 84.4375Z" fill="#2F2E41"/>
<path d="M141.824 81.3652C141.824 81.3652 144.556 90.9634 148.653 92.3346C152.75 93.7058 150.701 108.103 143.873 109.474C143.873 109.474 149.677 101.59 146.263 95.4198C142.849 89.2495 140.8 84.4504 141.824 81.3652Z" fill="#2F2E41"/>
<path d="M148.192 88.4575C148.15 88.4485 148.108 88.437 148.067 88.4231L137.362 84.7531C137.189 84.6939 137.035 84.5906 136.914 84.4534C136.793 84.3161 136.71 84.1497 136.672 83.9703C136.635 83.791 136.644 83.6049 136.7 83.4304C136.756 83.2559 136.856 83.0989 136.99 82.9749L145.569 75.0615C145.707 74.9337 145.877 74.8455 146.061 74.806C146.245 74.7666 146.436 74.7774 146.615 74.8372C146.793 74.8971 146.952 75.0039 147.076 75.1465C147.199 75.2891 147.282 75.4623 147.316 75.648L149.443 87.2315C149.474 87.402 149.463 87.5777 149.411 87.7429C149.358 87.9082 149.266 88.058 149.143 88.1791C149.019 88.3002 148.868 88.389 148.702 88.4375C148.536 88.4861 148.361 88.4929 148.192 88.4575V88.4575Z" fill="#FFE615"/>
<path d="M143.219 77.5152L147.616 78.4546L147.378 77.1565L144.318 76.5024L143.219 77.5152Z" fill="#E6E6E6"/>
<path d="M142.306 78.3594L147.816 79.5365L148.054 80.8346L141.207 79.3718L142.306 78.3594Z" fill="#E6E6E6"/>
<path d="M141.483 69.0387L142.886 73.3956C142.929 73.5412 143.027 73.6643 143.158 73.7393C143.29 73.8143 143.445 73.8353 143.592 73.798C143.738 73.756 143.861 73.6583 143.936 73.5258C144.011 73.3933 144.031 73.2366 143.993 73.0893L142.59 68.7324C142.547 68.5869 142.449 68.4638 142.317 68.3888C142.186 68.3138 142.031 68.2927 141.884 68.33C141.738 68.372 141.614 68.4697 141.539 68.6022C141.465 68.7347 141.444 68.8914 141.483 69.0387Z" fill="#CCCCCC"/>
<path d="M148.297 67.5604L146.96 72.1223C146.751 72.8351 147.858 73.1396 148.067 72.4286L149.403 67.8667C149.612 67.1539 148.505 66.8494 148.297 67.5604Z" fill="#CCCCCC"/>
<path d="M153.242 71.7376L149.936 75.1433C149.42 75.6754 150.257 76.4641 150.772 75.9334L154.077 72.5276C154.594 71.9955 153.757 71.2068 153.242 71.7376Z" fill="#CCCCCC"/>
<path d="M206.742 184.46C207.514 186.948 207.315 189.637 206.184 191.982C205.053 194.327 203.076 196.152 200.653 197.087C200.1 197.301 200.34 198.205 200.901 197.988C203.557 196.981 205.731 194.997 206.983 192.438C208.235 189.879 208.47 186.938 207.64 184.212C207.467 183.638 206.568 183.882 206.742 184.46Z" fill="white"/>
<path d="M239.25 26.8827C245.11 17.6786 242.876 5.73491 236.646 1.73655C230.416 -2.2618 218.681 0.717201 212.821 9.92128C207.398 18.4408 209.189 29.4811 214.139 34.0632C214.043 34.0784 213.952 34.1117 213.869 34.1613L212.42 35.0735C212.309 35.143 212.218 35.2397 212.156 35.3545C212.093 35.4692 212.06 35.5982 212.061 35.7291C212.062 35.8601 212.096 35.9886 212.16 36.1026C212.224 36.2165 212.317 36.3121 212.428 36.3802L215.54 38.2844C215.652 38.3525 215.778 38.3909 215.909 38.396C216.039 38.4011 216.168 38.3726 216.285 38.3133C216.401 38.2541 216.5 38.1659 216.573 38.0573C216.646 37.9487 216.69 37.8232 216.701 37.6927L216.844 35.9811C216.847 35.9214 216.844 35.8614 216.834 35.8025C223.056 38.4238 233.815 35.4207 239.25 26.8827Z" fill="#E6E6E6"/>
<path d="M236.272 8.72548C237.224 11.7911 236.978 15.1055 235.584 17.9957C234.19 20.8858 231.753 23.1351 228.768 24.2868C228.086 24.5507 228.382 25.6652 229.073 25.3978C232.346 24.1564 235.026 21.7106 236.569 18.5572C238.111 15.4038 238.401 11.7791 237.378 8.41918C237.165 7.71151 236.057 8.01313 236.272 8.72548Z" fill="white"/>
<path d="M77.9263 22.4748C71.4137 13.7243 59.4941 11.6124 53.571 16.0563C47.6479 20.5002 46.2873 32.5757 52.7999 41.3262C58.8281 49.4259 69.7497 51.6349 75.7653 48.6003C75.7459 48.6951 75.7447 48.7927 75.7618 48.8879L76.101 50.5713C76.1268 50.6997 76.1849 50.8192 76.2697 50.9187C76.3545 51.0181 76.4633 51.0942 76.5856 51.1395C76.7079 51.1849 76.8398 51.1982 76.9686 51.178C77.0975 51.1579 77.219 51.1049 77.3218 51.0243L80.1938 48.7716C80.2965 48.691 80.3771 48.5854 80.4277 48.4647C80.4784 48.3441 80.4975 48.2124 80.4833 48.0823C80.469 47.9521 80.4218 47.8278 80.3463 47.7211C80.2707 47.6144 80.1692 47.5289 80.0514 47.4726L78.5066 46.7349C78.4522 46.7104 78.3951 46.6924 78.3366 46.6813C82.9734 41.7595 83.9676 30.5921 77.9263 22.4748Z" fill="#FFE615"/>
<path d="M63.6806 19.1713C66.8664 19.6794 69.7363 21.3962 71.6979 23.9672C73.6595 26.5382 74.5631 29.7672 74.2222 32.9878C74.1522 33.7255 75.3002 33.7207 75.3698 32.9878C75.6982 29.5165 74.7074 26.049 72.596 23.2805C70.4847 20.512 67.409 18.6473 63.9857 18.0603C63.2634 17.937 62.953 19.0471 63.6806 19.1713Z" fill="white"/>
<path d="M51.781 142.879C54.6284 143.059 57.3927 143.914 59.8475 145.374C62.3022 146.834 64.3774 148.857 65.9029 151.278C66.3305 151.964 66.8886 152.718 66.5926 153.563C66.4895 153.887 66.28 154.166 65.9984 154.355C65.7168 154.544 65.3797 154.631 65.0423 154.602C64.1697 154.496 63.6065 153.639 63.499 152.818C63.3771 151.886 64.0317 151.155 64.8398 150.808C66.8147 149.963 68.8071 151.27 70.4157 152.313C74.0812 154.69 78.1128 156.84 82.5542 157.111C86.6636 157.361 91.0703 155.743 93.356 152.165C93.7559 151.539 92.763 150.961 92.3651 151.584C90.0983 155.132 85.5156 156.407 81.5311 155.858C79.1566 155.482 76.8638 154.701 74.752 153.547C73.6569 152.977 72.5947 152.344 71.554 151.679C70.5637 150.985 69.514 150.381 68.4173 149.874C66.5882 149.12 64.1669 149.178 62.8894 150.915C61.6974 152.536 62.6186 155.233 64.6121 155.689C66.5014 156.12 68.1565 154.336 67.7677 152.471C67.5688 151.517 66.8532 150.583 66.2992 149.803C64.6349 147.453 62.4666 145.507 59.954 144.109C57.4414 142.711 54.6484 141.897 51.7809 141.727C51.0428 141.69 51.0447 142.843 51.7809 142.879H51.781Z" fill="#FFE615"/>
<path d="M223.685 141.894C221.056 143.302 218.12 144.034 215.141 144.024C212.161 144.014 209.23 143.262 206.611 141.836C206.018 141.508 205.519 141.133 205.452 140.406C205.417 140.106 205.473 139.802 205.613 139.535C205.753 139.268 205.97 139.05 206.236 138.909C207.06 138.505 208.04 138.976 208.555 139.666C209.109 140.407 208.888 141.37 208.375 142.068C207.05 143.874 204.544 143.703 202.562 143.663C198.292 143.576 193.802 143.919 189.977 146.001C186.383 147.958 183.497 151.629 183.417 155.852C183.403 156.594 184.551 156.594 184.565 155.852C184.643 151.685 187.781 148.25 191.393 146.577C193.635 145.601 196.032 145.035 198.472 144.904C199.663 144.815 200.858 144.792 202.052 144.807C203.243 144.87 204.437 144.844 205.624 144.73C207.672 144.448 209.874 143.124 210.025 140.837C210.162 138.767 207.821 137.011 205.891 137.809C205.537 137.968 205.222 138.202 204.967 138.495C204.712 138.788 204.522 139.132 204.412 139.505C204.302 139.878 204.273 140.271 204.328 140.656C204.383 141.041 204.52 141.41 204.73 141.737C205.246 142.526 206.164 142.93 206.986 143.321C209.699 144.613 212.675 145.246 215.676 145.171C218.677 145.096 221.619 144.314 224.264 142.889C224.912 142.532 224.333 141.537 223.685 141.894V141.894Z" fill="#FF6584"/>
<path d="M171.844 67.1842C177.006 68.9672 180.621 74.2212 180.928 79.6306C181.084 82.3763 180.435 85.5504 178.395 87.5263C177.944 88.0062 177.381 88.3655 176.756 88.5716C176.132 88.7777 175.466 88.8241 174.819 88.7066C173.693 88.4608 172.518 87.6895 172.325 86.4646C172.139 85.2813 172.944 84.3035 173.921 83.7643C174.475 83.4624 175.085 83.2759 175.713 83.2161C176.34 83.1563 176.974 83.2243 177.575 83.4161C179.168 83.9131 180.517 84.9797 181.803 86.009C183.058 87.054 184.392 87.9988 185.794 88.8345C191.324 92.0325 197.88 92.9346 204.063 91.3484C210.247 89.7623 215.568 85.8133 218.893 80.3438C219.296 79.6873 219.667 79.0119 220.003 78.3178C220.327 77.6545 219.338 77.0698 219.012 77.7363C217.553 80.7615 215.463 83.4362 212.884 85.5792C210.305 87.7221 207.297 89.2831 204.064 90.1562C200.831 91.0294 197.449 91.1943 194.148 90.6398C190.846 90.0853 187.701 88.8244 184.927 86.9425C182.256 85.1454 179.695 82.0579 176.221 82.0358C173.663 82.0196 170.586 83.9611 171.241 86.8834C171.539 88.2128 172.659 89.1704 173.885 89.6309C174.545 89.8762 175.25 89.9734 175.95 89.9157C176.651 89.8579 177.331 89.6466 177.942 89.2966C180.651 87.7692 181.834 84.3786 182.059 81.4321C182.501 75.6429 179.241 69.6382 174.12 66.9239C173.485 66.5899 172.827 66.3055 172.149 66.0732C171.449 65.8315 171.149 66.9441 171.844 67.1842V67.1842Z" fill="#E6E6E6"/>
</g>
<defs>
<clipPath id="clip0">
<rect width="285" height="227" fill="white"/>
</clipPath>
</defs>
</svg>
